<?xml version="1.0" encoding="utf-8"?>
<!-- Generator: Adobe Illustrator 18.0.0, SVG Export Plug-In . SVG Version: 6.00 Build 0)  -->
<!DOCTYPE svg PUBLIC "-//W3C//DTD SVG 1.1//EN" "http://www.w3.org/Graphics/SVG/1.1/DTD/svg11.dtd">
<svg version="1.1" id="Layer_1" xmlns="http://www.w3.org/2000/svg" xmlns:xlink="http://www.w3.org/1999/xlink" x="0px" y="0px"
	 viewBox="1278 -694 493.8 536.3" enable-background="new 1278 -694 493.8 536.3" xml:space="preserve">
<g>
	<path fill="#258783" d="M1714.7-493.9l-99.9,279l-533.9-191.1l99.9-279L1714.7-493.9 M1771.8-521l-42.1-15.1l-533.9-191.1
		l-42.1-15.1l-15.1,42.1l-99.9,279l-15.1,42.1l42.1,15.1l533.9,191.1l42.1,15.1l15.1-42.1l99.9-279L1771.8-521L1771.8-521z"/>
	<path fill="#258783" d="M1641.2-494.4L1384.7-417l-149.1-222.6l-40.5-14.5l173.5,259.2c1.5,2.3,3.8,4,6.3,4.9c2.5,0.9,5.3,1,8,0.2
		l298.6-90.2L1641.2-494.4z"/>
	<g>
		<polygon fill="#258783" points="1534.5,-421.1 1509.9,-413.6 1578.8,-255.6 1597.2,-249.1 1602.8,-264.7 		"/>
		<polygon fill="#258783" points="1274.6,-510.7 1120.7,-443.5 1113.1,-422.3 1125.8,-417.8 1289,-489 		"/>
	</g>
</g>
</svg>
