<?xml version="1.0" encoding="utf-8"?>
<!-- Generator: Adobe Illustrator 18.0.0, SVG Export Plug-In . SVG Version: 6.00 Build 0)  -->
<!DOCTYPE svg PUBLIC "-//W3C//DTD SVG 1.1//EN" "http://www.w3.org/Graphics/SVG/1.1/DTD/svg11.dtd">
<svg version="1.1" id="Layer_1" xmlns="http://www.w3.org/2000/svg" xmlns:xlink="http://www.w3.org/1999/xlink" x="0px" y="0px"
	 viewBox="0 -694 493.8 536.3" enable-background="new 0 -694 493.8 536.3" xml:space="preserve">
<g>
	<g>
		<path fill="#A50605" d="M-86.5-910.1l481.7,481.7l34.9,215.8l-249.4-1.3l-482.2-481.3L-86.5-910.1 M-86.5-986.7l-38.3,38.3
			l-214.9,214.9l-38.3,38.3l38.3,38.3l481.7,481.7l15.7,15.7h22.6l249.8,1.3l63.8,0.4l-10.2-63l-34.9-215.8l-3-17.4l-12.3-12.3
			L-48.2-948.4L-86.5-986.7L-86.5-986.7z"/>
	</g>
	<g>
		
			<rect x="-60.6" y="-610.5" transform="matrix(0.7071 0.7071 -0.7071 0.7071 -398.766 -236.5836)" fill="#A50605" width="293.6" height="21.7"/>
	</g>
	<g>
		
			<rect x="-139.8" y="-531.2" transform="matrix(0.7071 0.7071 -0.7071 0.7071 -365.8889 -157.3769)" fill="#A50605" width="293.6" height="21.7"/>
	</g>
	<g>
		<path fill="#A50605" d="M427.2-278.6c0,0-54.9,3-66.4,76.2l78.3,7.7L427.2-278.6z"/>
	</g>
	<g>
		<path fill="#A50605" d="M330.6-442.8c-14.5,0-31.1,3-46.8,12.3c-20.9,12.8-35.3,34-42.1,63.4c-13.2,3.8-41.3,14.5-59.6,41.3
			c-10.6,15.7-16.2,34-16.6,54.9l23.4,23.4c-4.3-26.4-0.9-48.9,11.1-66c18.7-27.7,52.3-34,52.8-34l7.2-1.3l1.3-7.2
			c5.1-26.8,16.2-45.5,33.2-55.8c22.1-13.2,49.4-8.9,60.4-6.4L330.6-442.8z"/>
	</g>
</g>
</svg>
