<?xml version="1.0" encoding="utf-8"?>
<!-- Generator: Adobe Illustrator 18.0.0, SVG Export Plug-In . SVG Version: 6.00 Build 0)  -->
<!DOCTYPE svg PUBLIC "-//W3C//DTD SVG 1.1//EN" "http://www.w3.org/Graphics/SVG/1.1/DTD/svg11.dtd">
<svg version="1.1" id="Layer_1" xmlns="http://www.w3.org/2000/svg" xmlns:xlink="http://www.w3.org/1999/xlink" x="0px" y="0px"
	 viewBox="0 0 493.8 536.3" enable-background="new 0 0 493.8 536.3" xml:space="preserve">
<path fill="#E73900" d="M493.8,229.7c0-168.8-137-305.8-305.8-305.8s-305.8,137-305.8,305.8S19.2,535.5,188,535.5
	c59,0,114.3-16.7,161.2-45.8l121.5,46.6l-23.1-145C476.8,344.8,493.8,289.1,493.8,229.7z M185,439.4c-31.4,0-46.9-18.9-46.9-43.1
	c0-24.2,15.9-42.8,46.9-42.8c30.7,0,46.6,18.5,46.6,42.8C231.5,420.5,216.4,439.4,185,439.4z M231.9,273.2v51.9h-92.7v-93.5
	c79.1-24.6,98.4-41.3,98.4-62.8c0-18.9-11.7-38.2-46.9-38.2c-34.1,0-48.8,13.6-58.7,37.8l-86.3-23.1c16.3-60.9,70-101.8,148-101.8
	c86.3,0,137,50,137,113.2C330.3,224,278.1,256.6,231.9,273.2z"/>
</svg>
