<svg id="Layer_1" data-name="Layer 1" xmlns="http://www.w3.org/2000/svg" xmlns:xlink="http://www.w3.org/1999/xlink" viewBox="0 0 743.19183 156.49638">
  <defs>
    <style>
      .cls-1 {
        fill: none;
      }

      .cls-2 {
        opacity: 0.79;
      }

      .cls-3 {
        fill: #c12121;
      }

      .cls-4 {
        fill: #ff9a22;
      }

      .cls-5 {
        fill: #dd2c2c;
      }

      .cls-6 {
        clip-path: url(#clip-path);
      }

      .cls-7 {
        fill: #fffbc5;
      }

      .cls-8 {
        fill: #ffc933;
      }

      .cls-9 {
        fill: #d68400;
      }

      .cls-10 {
        fill: #d1d1d1;
      }

      .cls-11 {
        fill: #fff;
      }
    </style>
    <clipPath id="clip-path">
      <path class="cls-1" d="M680.09833,4.87257h0.04016V60.15849H663.38263V60.11827h-0.04016V60.078h-0.04028V60.0378H663.262V59.99754h-0.04028V59.95732h-0.04016V59.9171h-0.04016V59.87685h-0.04028V59.83662H663.061V59.79637h-0.04028V59.75615h-0.04016V59.716h-0.04016V59.67577h-0.04028V59.63554h-0.04016V59.59529h-0.04028V59.55507h-0.04016V59.51485H662.7392V59.47459h-0.04028V59.43437h-0.04016V59.39412h-0.04028V59.354h-0.04016V59.31374H662.538V59.27351h-0.04016V59.23329H662.4577V59.193h-0.04028V59.15282h-0.04016V59.11256H662.337V59.07234h-0.04016V59.03212h-0.04016V58.99193h-0.04053V58.95171H662.176V58.91145h-0.04028V58.87123h-0.04016V58.831h-0.04016V58.79079h-0.04028V58.75056h-0.04016V58.71031h-0.04028V58.67012h-0.04016V58.6299h-0.04028V58.58965H661.8139V58.54942h-0.04016V58.50917h-0.04028V58.469H661.6933V58.42882h-0.04016V58.38857h-0.04028V58.34831h-0.04016V58.308h-0.04028V58.26781h-0.04016V58.22758h-0.04016V58.18733H661.4118V58.14711h-0.04016V58.10686h-0.04041V58.06673h-0.04016V58.02647h-0.04028V57.98625h-0.04016V57.946h-0.04016V57.90578h-0.04028V57.86555H661.09V57.8253h-0.04028V57.78508h-0.04016V57.74492h-0.04041V57.70467h-0.04028V57.66444h-0.04016V57.62419h-0.04028V57.584h-0.04016V57.54381h-0.04016V57.50356h-0.04028V57.46333h-0.04016V57.42308H660.6474V57.38286h-0.04016V57.34264h-0.04016V57.30238h-0.04028V57.26216h-0.04016V57.22191h-0.04041V57.18169h-0.04016V57.14146h-0.04016V57.10121h-0.04028V57.061h-0.04016V57.02083h-0.04028V56.98061H660.205V56.94038h-0.04016V56.90013h-0.04028V56.85991h-0.04041V56.81966h-0.04028V56.77943h-0.04016V56.73918h-0.04028V56.699h-0.04016V56.6588h-0.04016V56.61855h-0.04028V56.57832h-0.04016V56.53807h-0.04028V56.49785h-0.04016V56.45763h-0.04016V56.41743h-0.04028V56.37721h-0.04016V56.337h-0.04041V56.29674h-0.04016V56.25652H659.4809V56.21626h-0.04028V56.176h-0.04016V56.13579h-0.04028V56.09563H659.32V30.189l-5.32678,5.28091-0.03931-.04114-0.001.00095-0.03931-.0412-0.001.00095-0.03931-.04114-0.001.00095-0.03931-.0412-0.001.00095-0.03931-.04114-0.001.00095-0.03931-.04114-0.001.00095-0.03931-.0412-0.001.00095-0.03931-.04114-0.001.00095-0.03931-.0412-0.001.00095-0.03931-.04114-0.001.00095-0.03931-.04114-0.001.00095-0.03931-.0412-0.001.00095-0.03931-.04114-0.001.00095-0.03931-.0412-0.001.00095L653.39,34.86574l-0.001.00095-0.03931-.04114-0.001.00095-0.03931-.0412-0.001.00095-0.03931-.04114-0.001.00095-0.03931-.0412-0.001.00095-0.03931-.04114-0.001.00095-0.03931-.0412-0.001.00095-0.03931-.04114-0.001.00095-0.03931-.04114-0.001.00095-0.03931-.0412-0.001.00095-0.03931-.04114-0.001.00095-0.03931-.0412,0.00037,0.0007-0.03931-.04114-0.001.00095-0.03931-.04114-0.001.00095-0.03931-.0412-0.001.00095-0.03931-.04114-0.001.00095-0.03931-.0412-0.001.00095-0.03931-.04114-0.001.00095-0.03931-.04114-0.001.00095-0.03931-.0412-0.001.00095-0.03931-.04114-0.001.00095-0.03931-.0412-0.001.00095-0.03931-.04114-0.001.00095-0.03931-.04114-0.001.00095-0.03931-.0412-0.001.00095-0.03931-.04114-0.001.00095-0.03931-.0412-0.001.00095-0.03931-.04114-0.001.00095-0.03931-.04114-0.001.00095-0.03931-.0412-0.001.00095L652.1828,33.659l-0.001.00095-0.03931-.0412-0.001.00095-0.03931-.04114-0.001.00095-0.03931-.04114-0.001.00095-0.03931-.0412-0.001.00095-0.03931-.04114-0.001.00095-0.03931-.0412-0.001.00095-0.03931-.04114-0.001.00095-0.03931-.0412-0.001.00095-0.03931-.04114-0.001.00095L651.78,33.25685l-0.001.00095-0.03931-.0412-0.001.00095-0.03931-.04114-0.001.00095-0.03931-.0412-0.001.00095-0.03931-.04114-0.001.00095-0.03931-.04114-0.001.00095-0.03931-.0412-0.001.00095-0.03931-.04114-0.001.00095-0.03931-.0412-0.001.00095-0.03931-.04114-0.001.00095-0.03931-.04114-0.001.00095-0.03931-.0412-0.001.00095-0.03931-.04114-0.001.00095-0.03931-.0412-0.001.00095L651.216,32.6938l-0.001.00095-0.03931-.04114-0.001.00095-0.03931-.0412-0.001.00095-0.03931-.04114-0.001.00095-0.03931-.0412-0.001.00095-0.03931-.04114-0.001.00095-0.03931-.04114-0.001.00095-0.03931-.0412-0.001.00095-0.03931-.04114-0.001.00095-0.03931-.0412-0.001.00095-0.03931-.04114-0.001.00095-0.03931-.04114-0.001.00095-0.03931-.0412-0.001.00095-0.03931-.04114-0.001.00095-0.03931-.0412-0.001.00095-0.03931-.04114-0.001.00095-0.03931-.0412-0.001.00095-0.03931-.04114-0.001.00095-0.03931-.04114-0.001.00095-0.03931-.0412-0.001.00095-0.03931-.04114-0.001.00095-0.03931-.0412-0.001.00095-0.03931-.04114-0.001.00095-0.03931-.04114-0.001.00095-0.03931-.0412-0.001.00095-0.03931-.04114-0.001.00095-0.03931-.0412-0.001.00095-0.03931-.04114-0.001.00095-0.03931-.04114-0.001.00095-0.03931-.0412-0.001.00095-0.03931-.04114-0.001.00095-0.03931-.0412-0.001.00095-0.03931-.04114-0.001.00095-9.4303-9.87543L661.6225,0.8105h14.44885V0.85071h0.04016V0.891h0.04028V0.93117H676.192V0.97142h0.04028V1.01163h0.04016V1.051h0.04016V1.09128h0.04028V1.13148H676.393V1.17174h0.04028V1.21194h0.04016V1.25215h0.04016V1.2924h0.04028V1.33261h0.04016V1.37286h0.04028V1.41307h0.04016V1.45328h0.04016V1.49353h0.04028V1.53374h0.04016V1.574h0.04028V1.61423h0.04016V1.65448h0.04028V1.69469H676.956V1.73489h0.04016V1.77515h0.04028V1.81535h0.04016V1.85561h0.04028V1.89581H677.157V1.936h0.04016V1.97627h0.04028V2.01648h0.04016V2.05673h0.04028V2.09694h0.04016V2.13715h0.04016V2.1774h0.04028V2.21761h0.04016V2.25786H677.519V2.29807h0.04016V2.33827h0.04016V2.37852h0.04028V2.41873h0.04016V2.459H677.72V2.49924h0.04016V2.53944h0.04016V2.5797h0.04028V2.6199h0.04016V2.66016h0.04028V2.70036h0.04016V2.74057h0.04016V2.78082h0.04028V2.821h0.04016V2.86128h0.04028V2.90149h0.04016V2.94174h0.04028V2.98195h0.04016V3.02216h0.04016V3.06241h0.04028V3.10262h0.04016V3.14287h0.04028V3.183h0.04016V3.22324h0.04016V3.26349h0.04028V3.3037h0.04016V3.344h0.04028V3.38423h0.04016V3.42444H678.685V3.46469h0.04028V3.5049h0.04016V3.54515h0.04028V3.58536h0.04016V3.62556H678.886V3.66582h0.04028V3.706h0.04016V3.74628h0.04028V3.78648h0.04016V3.82669h0.04016V3.86694h0.04028V3.90715h0.04016V3.9474h0.04028V3.98761H679.248V4.02782h0.04016V4.068h0.04028V4.10823h0.04016V4.14848h0.04028V4.18869H679.449V4.22894h0.04028V4.26915h0.04016V4.30936h0.04016V4.34961h0.04028V4.38982h0.04016V4.43007h0.04028V4.47028h0.04016V4.51048h0.04016V4.55074H679.811V4.591h0.04016V4.63127h0.046V4.67148h0.04016V4.71169h0.04016V4.75194h0.04028V4.79214h0.04016V4.8324h0.04028V4.8726Zm54.96191,27.70309a36.65489,36.65489,0,0,1-2.60413,14.03448,23.93225,23.93225,0,0,1-8.257,10.45523,24.70872,24.70872,0,0,1-27.27649,0,25.54875,25.54875,0,0,1-2.662-2.22635c-0.01379-.01315-0.02649-0.02707-0.04028-0.04025s-0.02649-.027-0.04016-0.04022-0.02649-.02707-0.04028-0.04025-0.02649-.027-0.04016-0.04022l-0.04016-.04022c-0.01367-.01321-0.02649-0.02707-0.04028-0.04025s-0.02649-.027-0.04016-0.04022-0.02649-.02707-0.04028-0.04025-0.02649-.027-0.04016-0.04022l-0.04016-.04022c-0.01367-.01321-0.02649-0.027-0.04028-0.04025s-0.02649-.027-0.04016-0.04022-0.02649-.02707-0.04028-0.04025-0.02649-.027-0.04016-0.04022l-0.04016-.04022c-0.01367-.01321-0.02649-0.02707-0.04028-0.04025s-0.02649-.027-0.04016-0.04022-0.02649-.02707-0.04028-0.04025-0.02649-.027-0.04016-0.04022-0.02649-.027-0.04028-0.04025-0.02649-.027-0.04016-0.04022l-0.04016-.04022c-0.01367-.01321-0.02649-0.027-0.04028-0.04025s-0.02649-.027-0.04016-0.04022-0.02649-.02707-0.04028-0.04025-0.02649-.027-0.04016-0.04022L693.175,53.7527c-0.01367-.01321-0.02649-0.02707-0.04028-0.04025s-0.02649-.027-0.04016-0.04022-0.02649-.02707-0.04028-0.04025-0.02649-.027-0.04016-0.04022l-0.04016-.04022c-0.01367-.01321-0.02649-0.02707-0.04028-0.04025s-0.02649-.027-0.04016-0.04022-0.02649-.02707-0.04028-0.04025-0.02649-.027-0.04016-0.04022l-0.04016-.04022c-0.01367-.01321-0.02649-0.02707-0.04028-0.04025s-0.02649-.027-0.04016-0.04022-0.02649-.02707-0.04028-0.04025-0.02649-.027-0.04016-0.04022l-0.04016-.04022c-0.01367-.01321-0.02649-0.02707-0.04028-0.04025s-0.02649-.027-0.04016-0.04022-0.02649-.02707-0.04028-0.04025-0.02649-.027-0.04016-0.04022l-0.04016-.04022c-0.01367-.01321-0.02649-0.02707-0.04028-0.04025s-0.02649-.027-0.04016-0.04022-0.02649-.02707-0.04028-0.04025-0.02649-.027-0.04016-0.04022-0.02649-.02707-0.04028-0.04025-0.02649-.027-0.04016-0.04022l-0.04016-.04022c-0.01367-.01321-0.02649-0.027-0.04028-0.04025s-0.02649-.027-0.04016-0.04022-0.02649-.02707-0.04028-0.04025-0.02649-.027-0.04016-0.04022l-0.04016-.04022c-0.01367-.01321-0.02649-0.02707-0.04028-0.04025s-0.02649-.027-0.04016-0.04022-0.02649-.02707-0.04028-0.04025-0.02649-.027-0.04016-0.04022l-0.04016-.04022c-0.01367-.01321-0.02649-0.02707-0.04028-0.04025s-0.02649-.027-0.04016-0.04022-0.02649-.027-0.04028-0.04025-0.02649-.027-0.04016-0.04022l-0.04016-.04022c-0.01367-.01321-0.02649-0.02707-0.04028-0.04025s-0.02649-.027-0.04016-0.04022-0.02649-.02707-0.04028-0.04025-0.02649-.027-0.04016-0.04022l-0.04016-.04022c-0.01367-.01321-0.02649-0.02707-0.04028-0.04025s-0.02649-.027-0.04016-0.04022-0.02649-.02707-0.04028-0.04025-0.02649-.027-0.04016-0.04022l-0.04016-.04022c-0.01367-.01321-0.02649-0.02707-0.04028-0.04025s-0.02649-.027-0.04016-0.04022-0.02649-.02707-0.04028-0.04025-0.02649-.027-0.04016-0.04022-0.02649-.02707-0.04028-0.04025-0.02649-.027-0.04016-0.04022l-0.04016-.04022c-0.01367-.01321-0.02649-0.02707-0.04028-0.04025s-0.02649-.027-0.04016-0.04022-0.02649-.02707-0.04028-0.04025-0.02649-.027-0.04016-0.04022l-0.04016-.04022c-0.01367-.01321-0.02649-0.02707-0.04028-0.04025s-0.02649-.027-0.04016-0.04022-0.02649-.02707-0.04028-0.04025-0.02649-.027-0.04016-0.04022l-0.04016-.04022c-0.01367-.01321-0.02649-0.027-0.04028-0.04025s-0.02649-.027-0.04016-0.04022-0.02649-.027-0.04028-0.04025-0.02649-.027-0.04016-0.04022a23.725,23.725,0,0,1-5.61487-8.2691,36.72381,36.72381,0,0,1-2.5979-14.03448q0-12.02838,6.34351-20.27084,6.34424-8.241,18.12744-8.242,10.32019,0,16.47913,6.323L723.017,6.36235l0.04028,0.04025,0.04016,0.04022,0.04028,0.04025,0.04016,0.04022,0.04016,0.04022,0.04028,0.04025L723.29852,6.644l0.0387,0.041,0.04016,0.04022,0.04016,0.04022,0.04028,0.04025L723.498,6.84593l0.04028,0.04025,0.04016,0.04022,0.04016,0.04022,0.04028,0.04025L723.699,7.0471l0.04028,0.04025,0.04016,0.04022,0.04028,0.04025,0.04016,0.04022,0.04016,0.04022,0.04028,0.04025,0.04016,0.04022L724.02081,7.369,724.061,7.40923l0.04016,0.04022,0.04028,0.04025,0.04016,0.04022,0.04028,0.04025L724.262,7.6104l0.04016,0.04022,0.04028,0.04025,0.04016,0.04022,0.04028,0.04025,0.04016,0.04022,0.04016,0.04022L724.54352,7.892l0.04016,0.04022L724.624,7.97252l0.04016,0.04022L724.70428,8.053l0.04028,0.04025,0.04016,0.04022L724.825,8.17369l0.04016,0.04022,0.04016,0.04022,0.04028,0.04025,0.04016,0.04022,0.04028,0.04025,0.04016,0.04022,0.041,0.03995,0.04016,0.04022,0.04016,0.04022,0.04028,0.04025L725.268,8.616l0.04028,0.04025,0.04016,0.04022,0.04016,0.04022,0.04028,0.04025,0.04016,0.04022,0.04028,0.04025L725.5495,8.8976l0.04016,0.04022,0.04028,0.04025,0.04016,0.04022,0.04028,0.04025,0.04016,0.04022L725.79071,9.139l0.04053,0.04,0.04016,0.04022,0.04028,0.04025,0.04016,0.04022L725.992,9.34l0.04028,0.04025,0.04016,0.04022,0.04028,0.04025,0.04016,0.04022,0.04016,0.04022,0.04028,0.04025L726.2735,9.6216l0.04028,0.04025,0.04016,0.04022,0.04028,0.04025,0.04016,0.04022,0.04016,0.04022L726.51483,9.863,726.555,9.90324l0.04028,0.04025,0.04016,0.04022,0.04016,0.04022,0.04028,0.04025,0.04016,0.04022,0.04028,0.04025,0.04016,0.04022,0.04016,0.04022,0.04028,0.04025,0.04016,0.04022,0.04028,0.04025a22.00244,22.00244,0,0,1,1.70325,1.9592q6.35962,8.24222,6.3595,20.27063h0.00012ZM712.75885,18.97575a6.96173,6.96173,0,0,0-2.18494-.34247q-7.73071,0-7.7301,13.94238a24.87381,24.87381,0,0,0,1.49634,9.6218,6.933,6.933,0,0,0,2.1709.33978q7.73035,0,7.73047-14.02444A24.68638,24.68638,0,0,0,712.75885,18.97575Z"/>
    </clipPath>
  </defs>
  <title>10</title>
  <g id="Layer_1-2" data-name="Layer 1">
    <g>
      <g>
        <g class="cls-2">
          <polygon class="cls-3" points="684.129 8.863 684.089 8.863 684.089 8.823 684.049 8.823 684.049 8.783 684.008 8.783 684.008 8.742 683.968 8.742 683.968 8.702 683.928 8.702 683.928 8.662 683.888 8.662 683.888 8.622 683.848 8.622 683.848 8.582 683.807 8.582 683.807 8.541 683.767 8.541 683.767 8.501 683.727 8.501 683.727 8.461 683.687 8.461 683.687 8.421 683.646 8.421 683.646 8.38 683.606 8.38 683.606 8.34 683.566 8.34 683.566 8.3 683.526 8.3 683.526 8.26 683.485 8.26 683.485 8.22 683.445 8.22 683.445 8.179 683.405 8.179 683.405 8.139 683.365 8.139 683.365 8.099 683.325 8.099 683.325 8.059 683.284 8.059 683.284 8.018 683.244 8.018 683.244 7.978 683.204 7.978 683.204 7.938 683.164 7.938 683.164 7.898 683.123 7.898 683.123 7.857 683.083 7.857 683.083 7.817 683.043 7.817 683.043 7.777 683.003 7.777 683.003 7.737 682.963 7.737 682.963 7.697 682.922 7.697 682.922 7.656 682.882 7.656 682.882 7.616 682.842 7.616 682.842 7.576 682.802 7.576 682.802 7.536 682.761 7.536 682.761 7.495 682.721 7.495 682.721 7.455 682.681 7.455 682.681 7.415 682.641 7.415 682.641 7.375 682.6 7.375 682.6 7.335 682.56 7.335 682.56 7.294 682.52 7.294 682.52 7.254 682.48 7.254 682.48 7.214 682.44 7.214 682.44 7.174 682.399 7.174 682.399 7.133 682.359 7.133 682.359 7.093 682.319 7.093 682.319 7.053 682.279 7.053 682.279 7.013 682.238 7.013 682.238 6.973 682.198 6.973 682.198 6.932 682.158 6.932 682.158 6.892 682.118 6.892 682.118 6.852 682.078 6.852 682.078 6.812 682.037 6.812 682.037 6.771 681.997 6.771 681.997 6.731 681.957 6.731 681.957 6.691 681.917 6.691 681.917 6.651 681.876 6.651 681.876 6.61 681.836 6.61 681.836 6.57 681.796 6.57 681.796 6.53 681.756 6.53 681.756 6.49 681.715 6.49 681.715 6.45 681.675 6.45 681.675 6.409 681.635 6.409 681.635 6.369 681.595 6.369 681.595 6.329 681.555 6.329 681.555 6.289 681.514 6.289 681.514 6.248 681.474 6.248 681.474 6.208 681.434 6.208 681.434 6.168 681.394 6.168 681.394 6.128 681.353 6.128 681.353 6.088 681.313 6.088 681.313 6.047 681.273 6.047 681.273 6.007 681.233 6.007 681.233 5.967 681.193 5.967 681.193 5.927 681.152 5.927 681.152 5.886 681.112 5.886 681.112 5.846 681.072 5.846 681.072 5.806 681.032 5.806 681.032 5.766 680.991 5.766 680.991 5.725 680.951 5.725 680.951 5.685 680.911 5.685 680.911 5.645 680.871 5.645 680.871 5.605 680.831 5.605 680.831 5.565 680.79 5.565 680.79 5.524 680.75 5.524 680.75 5.484 680.71 5.484 680.71 5.444 680.67 5.444 680.67 5.404 680.629 5.404 680.629 5.363 680.589 5.363 680.589 5.323 680.549 5.323 680.549 5.283 680.509 5.283 680.509 5.243 680.468 5.243 680.468 5.203 680.428 5.203 680.428 5.162 680.388 5.162 680.388 5.122 680.348 5.122 680.348 5.082 680.308 5.082 680.308 5.042 680.267 5.042 680.267 5.001 680.227 5.001 680.227 4.961 680.187 4.961 680.187 4.921 680.147 4.921 680.147 4.881 680.106 4.881 680.106 4.84 665.658 4.84 644.531 25.562 653.961 35.438 653.962 35.437 654.001 35.478 654.002 35.477 654.041 35.518 654.042 35.517 654.082 35.558 654.083 35.558 654.122 35.599 654.123 35.598 654.162 35.639 654.163 35.638 654.202 35.679 654.203 35.678 654.243 35.719 654.244 35.718 654.283 35.76 654.284 35.759 654.323 35.8 654.324 35.799 654.363 35.84 654.364 35.839 654.403 35.88 654.404 35.879 654.444 35.921 654.445 35.92 654.484 35.961 654.485 35.96 654.524 36.001 654.525 36 654.564 36.041 654.565 36.04 654.605 36.081 654.606 36.08 654.645 36.122 654.646 36.121 654.685 36.162 654.686 36.161 654.725 36.202 654.726 36.201 654.766 36.242 654.766 36.241 654.806 36.283 654.807 36.282 654.846 36.323 654.847 36.322 654.886 36.363 654.887 36.362 654.926 36.403 654.927 36.402 654.967 36.443 654.968 36.443 655.007 36.484 655.008 36.483 655.047 36.524 655.048 36.523 655.087 36.564 655.088 36.563 655.128 36.604 655.129 36.603 655.168 36.645 655.169 36.644 655.208 36.685 655.209 36.684 655.248 36.725 655.249 36.724 655.288 36.765 655.289 36.764 655.329 36.806 655.33 36.805 655.369 36.846 655.37 36.845 655.409 36.886 655.41 36.885 655.449 36.926 655.45 36.925 655.49 36.966 655.491 36.965 655.53 37.007 655.531 37.006 655.57 37.047 655.571 37.046 655.61 37.087 655.611 37.086 655.651 37.127 655.651 37.126 655.691 37.168 655.692 37.167 655.731 37.208 655.732 37.207 655.771 37.248 655.772 37.247 655.811 37.288 655.812 37.287 655.852 37.328 655.853 37.328 655.892 37.369 655.893 37.368 655.932 37.409 655.933 37.408 655.972 37.449 655.973 37.448 656.013 37.489 656.014 37.488 656.053 37.53 656.054 37.529 656.093 37.57 656.094 37.569 656.133 37.61 656.134 37.609 656.173 37.65 656.174 37.649 656.214 37.69 656.215 37.69 656.254 37.731 656.255 37.73 656.294 37.771 656.295 37.77 656.334 37.811 656.335 37.81 656.375 37.851 656.376 37.85 656.415 37.892 656.416 37.891 656.455 37.932 656.456 37.931 656.495 37.972 656.496 37.971 656.536 38.012 656.536 38.011 656.576 38.053 656.577 38.052 656.616 38.093 656.617 38.092 656.656 38.133 656.657 38.132 656.696 38.173 656.697 38.172 656.737 38.213 656.738 38.212 656.777 38.254 656.778 38.253 656.817 38.294 656.818 38.293 656.857 38.334 656.858 38.333 656.898 38.374 656.899 38.373 656.938 38.415 656.939 38.414 656.978 38.455 656.979 38.454 657.018 38.495 657.019 38.494 657.058 38.535 657.059 38.534 657.099 38.575 657.1 38.575 657.139 38.616 657.14 38.615 657.179 38.656 657.18 38.655 657.219 38.696 657.22 38.695 657.26 38.736 657.261 38.735 657.3 38.777 657.301 38.776 657.34 38.817 657.341 38.816 657.38 38.857 657.381 38.856 657.42 38.897 657.421 38.896 657.461 38.937 657.462 38.937 657.501 38.978 657.502 38.977 657.541 39.018 657.542 39.017 657.581 39.058 657.582 39.057 657.622 39.098 657.623 39.097 657.662 39.139 657.663 39.138 657.702 39.179 657.703 39.178 657.742 39.219 657.743 39.218 657.783 39.259 657.783 39.258 657.823 39.3 657.824 39.299 657.863 39.34 657.864 39.339 657.903 39.38 657.904 39.379 657.943 39.42 657.944 39.419 657.984 39.46 657.985 39.46 658.024 39.501 663.351 34.22 663.351 60.126 663.391 60.126 663.391 60.167 663.431 60.167 663.431 60.207 663.471 60.207 663.471 60.247 663.512 60.247 663.512 60.287 663.552 60.287 663.552 60.328 663.592 60.328 663.592 60.368 663.632 60.368 663.632 60.408 663.672 60.408 663.672 60.448 663.713 60.448 663.713 60.488 663.753 60.488 663.753 60.529 663.793 60.529 663.793 60.569 663.833 60.569 663.833 60.609 663.874 60.609 663.874 60.649 663.914 60.649 663.914 60.69 663.954 60.69 663.954 60.73 663.994 60.73 663.994 60.77 664.034 60.77 664.034 60.81 664.075 60.81 664.075 60.85 664.115 60.85 664.115 60.891 664.155 60.891 664.155 60.931 664.195 60.931 664.195 60.971 664.236 60.971 664.236 61.011 664.276 61.011 664.276 61.052 664.316 61.052 664.316 61.092 664.356 61.092 664.356 61.132 664.397 61.132 664.397 61.172 664.437 61.172 664.437 61.213 664.477 61.213 664.477 61.253 664.517 61.253 664.517 61.293 664.557 61.293 664.557 61.333 664.598 61.333 664.598 61.373 664.638 61.373 664.638 61.414 664.678 61.414 664.678 61.454 664.718 61.454 664.718 61.494 664.759 61.494 664.759 61.534 664.799 61.534 664.799 61.575 664.839 61.575 664.839 61.615 664.879 61.615 664.879 61.655 664.919 61.655 664.919 61.695 664.96 61.695 664.96 61.735 665 61.735 665 61.776 665.04 61.776 665.04 61.816 665.08 61.816 665.08 61.856 665.121 61.856 665.121 61.896 665.161 61.896 665.161 61.937 665.201 61.937 665.201 61.977 665.241 61.977 665.241 62.017 665.281 62.017 665.281 62.057 665.322 62.057 665.322 62.098 665.362 62.098 665.362 62.138 665.402 62.138 665.402 62.178 665.442 62.178 665.442 62.218 665.483 62.218 665.483 62.258 665.523 62.258 665.523 62.299 665.563 62.299 665.563 62.339 665.603 62.339 665.603 62.379 665.644 62.379 665.644 62.419 665.684 62.419 665.684 62.46 665.724 62.46 665.724 62.5 665.764 62.5 665.764 62.54 665.804 62.54 665.804 62.58 665.845 62.58 665.845 62.62 665.885 62.62 665.885 62.661 665.925 62.661 665.925 62.701 665.965 62.701 665.965 62.741 666.006 62.741 666.006 62.781 666.046 62.781 666.046 62.822 666.086 62.822 666.086 62.862 666.126 62.862 666.126 62.902 666.166 62.902 666.166 62.942 666.207 62.942 666.207 62.982 666.247 62.982 666.247 63.023 666.287 63.023 666.287 63.063 666.327 63.063 666.327 63.103 666.368 63.103 666.368 63.143 666.408 63.143 666.408 63.184 666.448 63.184 666.448 63.224 666.488 63.224 666.488 63.264 666.529 63.264 666.529 63.304 666.569 63.304 666.569 63.345 666.609 63.345 666.609 63.385 666.649 63.385 666.649 63.425 666.689 63.425 666.689 63.465 666.73 63.465 666.73 63.505 666.77 63.505 666.77 63.546 666.81 63.546 666.81 63.586 666.85 63.586 666.85 63.626 666.891 63.626 666.891 63.666 666.931 63.666 666.931 63.707 666.971 63.707 666.971 63.747 667.011 63.747 667.011 63.787 667.051 63.787 667.051 63.827 667.092 63.827 667.092 63.867 667.132 63.867 667.132 63.908 667.172 63.908 667.172 63.948 667.212 63.948 667.212 63.988 667.253 63.988 667.253 64.028 667.293 64.028 667.293 64.069 667.333 64.069 667.333 64.109 667.373 64.109 667.373 64.149 667.414 64.149 667.414 64.189 684.169 64.189 684.169 8.903 684.129 8.903 684.129 8.863"/>
          <path class="cls-3" d="M732.73187,16.33562a22.00244,22.00244,0,0,0-1.70325-1.9592l-0.04028-.04025-0.04016-.04022-0.04028-.04025-0.04016-.04022-0.04016-.04022-0.04041-.04022L730.747,14.0948l-0.04028-.04025-0.04016-.04022-0.04016-.04022-0.04028-.04025-0.04016-.04022-0.04028-.04025-0.04016-.04022-0.04016-.04022-0.04028-.04025-0.04016-.04022-0.04028-.04025-0.04016-.04022-0.04028-.04025-0.04016-.04022-0.04016-.04022-0.04028-.04025-0.04016-.04022-0.04028-.04025-0.04016-.04022-0.04016-.04022-0.04028-.04025-0.04016-.04022-0.04028-.04025-0.04016-.04022-0.04016-.04022-0.04028-.04025-0.04016-.04022-0.04028-.04025-0.04016-.04022-0.04016-.04022-0.04028-.04025-0.04016-.04022L729.42,12.767l-0.04016-.04022-0.04016-.04022-0.04028-.04025-0.04016-.04022-0.04028-.04025-0.04016-.04022-0.04016-.04022-0.04028-.04025-0.04016-.04022-0.041-.03992-0.04016-.04022-0.04028-.04025-0.04016-.04022-0.04016-.04022-0.04028-.04025-0.04016-.04022-0.04028-.04025-0.04016-.04022-0.04016-.04022-0.04028-.04025-0.04016-.04022-0.04028-.04025-0.04016-.04022-0.04016-.04022-0.04028-.04025-0.04016-.04022-0.04028-.04025-0.04016-.04022-0.04016-.04022-0.04028-.04025-0.04016-.04022-0.04028-.04025-0.04016-.04022-0.04016-.04022-0.04028-.04025-0.04016-.04022-0.04028-.04025-0.04016-.04022-0.04016-.04022-0.04028-.04025-0.04016-.04022-0.04028-.04025-0.04016-.04022L727.65,10.99706l-0.04016-.04022-0.04016-.04022-0.04028-.04025-0.04016-.04022-0.04028-.04025-0.04016-.04022-0.04016-.04022-0.04028-.04025-0.04016-.04022-0.04028-.04025-0.04016-.04022-0.04016-.04022-0.04028-.04025-0.04016-.04022-0.04028-.04025-0.04016-.04022q-6.15948-6.3219-16.47913-6.323-11.7832,0-18.12744,8.242-6.34424,8.24245-6.34351,20.27084a36.72381,36.72381,0,0,0,2.5979,14.03448,23.725,23.725,0,0,0,5.61487,8.2691c0.01379,0.01318.02649,0.02707,0.04016,0.04022s0.02649,0.0271.04028,0.04025,0.02649,0.02707.04016,0.04022,0.02649,0.0271.04028,0.04025,0.02649,0.027.04016,0.04022,0.02649,0.02707.04016,0.04022,0.02649,0.0271.04028,0.04025,0.02649,0.02707.04016,0.04022,0.02649,0.0271.04028,0.04025,0.02649,0.02707.04016,0.04022,0.02649,0.027.04016,0.04022,0.02649,0.0271.04028,0.04025,0.02649,0.02707.04016,0.04022,0.02649,0.0271.04028,0.04025,0.02649,0.02707.04016,0.04022,0.02649,0.02707.04016,0.04022,0.02649,0.0271.04028,0.04025,0.02649,0.02707.04016,0.04022,0.02649,0.0271.04028,0.04025,0.02649,0.027.04016,0.04022,0.02649,0.0271.04028,0.04025,0.02649,0.02707.04016,0.04022,0.02649,0.027.04016,0.04022,0.02649,0.0271.04028,0.04025,0.02649,0.02707.04016,0.04022,0.02649,0.0271.04028,0.04025,0.02649,0.02707.04016,0.04022,0.02649,0.02707.04016,0.04022,0.02649,0.0271.04028,0.04025,0.02649,0.02707.04016,0.04022,0.02649,0.0271.04028,0.04025,0.02649,0.027.04016,0.04022,0.02649,0.02707.04016,0.04022,0.02649,0.0271.04028,0.04025,0.02649,0.02707.04016,0.04022,0.02649,0.0271.04028,0.04025,0.02649,0.027.04016,0.04022,0.02649,0.02707.04016,0.04022,0.02649,0.0271.04028,0.04025,0.02649,0.02707.04016,0.04022,0.02649,0.0271.04028,0.04025,0.02649,0.02707.04016,0.04022,0.02649,0.02707.04016,0.04022,0.02649,0.0271.04028,0.04025,0.02649,0.02707.04016,0.04022,0.02649,0.0271.04028,0.04025,0.02649,0.02707.04016,0.04022,0.02649,0.02707.04016,0.04022,0.02649,0.0271.04028,0.04025,0.02649,0.02707.04016,0.04022,0.02649,0.0271.04028,0.04025,0.02649,0.02707.04016,0.04022,0.02649,0.0271.04028,0.04025,0.02649,0.02707.04016,0.04022,0.02649,0.027.04016,0.04022,0.02649,0.0271.04028,0.04025,0.02649,0.02707.04016,0.04022,0.02649,0.0271.04028,0.04025,0.02649,0.02707.04016,0.04022,0.02649,0.02707.04016,0.04022,0.02649,0.0271.04028,0.04025,0.02649,0.02707.04016,0.04022,0.02649,0.0271.04028,0.04025,0.02649,0.02707.04016,0.04022,0.02649,0.02707.04016,0.04022,0.02649,0.0271.04028,0.04025,0.02649,0.027.04016,0.04022,0.02649,0.0271.04028,0.04025,0.02649,0.02707.04016,0.04022,0.02649,0.02707.04016,0.04022,0.02649,0.0271.04028,0.04025,0.02649,0.02707.04016,0.04022,0.02649,0.0271.04028,0.04025,0.02649,0.02707.04016,0.04022,0.02649,0.02707.04016,0.04022,0.02649,0.0271.04028,0.04025,0.02649,0.02707.04016,0.04022,0.02649,0.0271.04028,0.04025,0.02649,0.027.04016,0.04022,0.02649,0.02707.04016,0.04022,0.02649,0.0271.04028,0.04025,0.02649,0.02707.04016,0.04022,0.02649,0.0271.04028,0.04025,0.02649,0.02707.04016,0.04022,0.02649,0.0271.04028,0.04025,0.02649,0.02707.04016,0.04022,0.02649,0.02707.04016,0.04022,0.02649,0.0271.04028,0.04025,0.02649,0.02707.04016,0.04022,0.02649,0.0271.04028,0.04025,0.02649,0.02707.04016,0.04022,0.02649,0.02707.04016,0.04022,0.02649,0.0271.04028,0.04025,0.02649,0.02707.04016,0.04022,0.02649,0.0271.04028,0.04025,0.02649,0.02707.04016,0.04022,0.02649,0.027.04016,0.04022,0.02649,0.0271.04028,0.04025,0.02649,0.027.04016,0.04022,0.02649,0.0271.04028,0.04025a25.54875,25.54875,0,0,0,2.662,2.22635,24.70872,24.70872,0,0,0,27.27649,0,23.93225,23.93225,0,0,0,8.257-10.45523A36.65489,36.65489,0,0,0,739.09,36.60686Q739.09094,24.578,732.73187,16.33562Zm-14.45947,16.208q0,14.02478-7.73047,14.02444a6.933,6.933,0,0,1-2.1709-.33978,24.87381,24.87381,0,0,1-1.49634-9.6218q0-13.94252,7.7301-13.94238a6.96173,6.96173,0,0,1,2.18494.34247,24.68622,24.68622,0,0,1,1.48254,9.537Z"/>
        </g>
        <g>
          <polygon class="cls-4" points="680.098 4.832 680.058 4.832 680.058 4.792 680.018 4.792 680.018 4.752 679.978 4.752 679.978 4.712 679.937 4.712 679.937 4.671 679.897 4.671 679.897 4.631 679.857 4.631 679.857 4.591 679.817 4.591 679.817 4.551 679.776 4.551 679.776 4.511 679.736 4.511 679.736 4.47 679.696 4.47 679.696 4.43 679.656 4.43 679.656 4.39 679.616 4.39 679.616 4.35 679.575 4.35 679.575 4.309 679.535 4.309 679.535 4.269 679.495 4.269 679.495 4.229 679.455 4.229 679.455 4.189 679.414 4.189 679.414 4.149 679.374 4.149 679.374 4.108 679.334 4.108 679.334 4.068 679.294 4.068 679.294 4.028 679.254 4.028 679.254 3.988 679.213 3.988 679.213 3.947 679.173 3.947 679.173 3.907 679.133 3.907 679.133 3.867 679.093 3.867 679.093 3.827 679.052 3.827 679.052 3.786 679.012 3.786 679.012 3.746 678.972 3.746 678.972 3.706 678.932 3.706 678.932 3.666 678.891 3.666 678.891 3.626 678.851 3.626 678.851 3.585 678.811 3.585 678.811 3.545 678.771 3.545 678.771 3.505 678.731 3.505 678.731 3.465 678.69 3.465 678.69 3.424 678.65 3.424 678.65 3.384 678.61 3.384 678.61 3.344 678.57 3.344 678.57 3.304 678.529 3.304 678.529 3.264 678.489 3.264 678.489 3.223 678.449 3.223 678.449 3.183 678.409 3.183 678.409 3.143 678.369 3.143 678.369 3.103 678.328 3.103 678.328 3.062 678.288 3.062 678.288 3.022 678.248 3.022 678.248 2.982 678.208 2.982 678.208 2.942 678.167 2.942 678.167 2.901 678.127 2.901 678.127 2.861 678.087 2.861 678.087 2.821 678.047 2.821 678.047 2.781 678.007 2.781 678.007 2.741 677.966 2.741 677.966 2.7 677.926 2.7 677.926 2.66 677.886 2.66 677.886 2.62 677.846 2.62 677.846 2.58 677.805 2.58 677.805 2.539 677.765 2.539 677.765 2.499 677.725 2.499 677.725 2.459 677.685 2.459 677.685 2.419 677.644 2.419 677.644 2.379 677.604 2.379 677.604 2.338 677.564 2.338 677.564 2.298 677.524 2.298 677.524 2.258 677.484 2.258 677.484 2.218 677.443 2.218 677.443 2.177 677.403 2.177 677.403 2.137 677.363 2.137 677.363 2.097 677.323 2.097 677.323 2.057 677.282 2.057 677.282 2.016 677.242 2.016 677.242 1.976 677.202 1.976 677.202 1.936 677.162 1.936 677.162 1.896 677.122 1.896 677.122 1.856 677.081 1.856 677.081 1.815 677.041 1.815 677.041 1.775 677.001 1.775 677.001 1.735 676.961 1.735 676.961 1.695 676.92 1.695 676.92 1.654 676.88 1.654 676.88 1.614 676.84 1.614 676.84 1.574 676.8 1.574 676.8 1.534 676.76 1.534 676.76 1.494 676.719 1.494 676.719 1.453 676.679 1.453 676.679 1.413 676.639 1.413 676.639 1.373 676.599 1.373 676.599 1.333 676.558 1.333 676.558 1.292 676.518 1.292 676.518 1.252 676.478 1.252 676.478 1.212 676.438 1.212 676.438 1.172 676.397 1.172 676.397 1.131 676.357 1.131 676.357 1.091 676.317 1.091 676.317 1.051 676.277 1.051 676.277 1.011 676.237 1.011 676.237 0.971 676.196 0.971 676.196 0.93 676.156 0.93 676.156 0.89 676.116 0.89 676.116 0.85 676.076 0.85 676.076 0.81 661.627 0.81 640.5 21.532 649.93 31.407 649.931 31.406 649.97 31.447 649.971 31.446 650.011 31.487 650.012 31.487 650.051 31.528 650.052 31.527 650.091 31.568 650.092 31.567 650.131 31.608 650.132 31.607 650.172 31.648 650.173 31.647 650.212 31.689 650.213 31.688 650.252 31.729 650.253 31.728 650.292 31.769 650.293 31.768 650.332 31.809 650.333 31.808 650.373 31.849 650.374 31.849 650.413 31.89 650.414 31.889 650.453 31.93 650.454 31.929 650.493 31.97 650.494 31.969 650.534 32.01 650.535 32.009 650.574 32.051 650.575 32.05 650.614 32.091 650.615 32.09 650.654 32.131 650.655 32.13 650.695 32.171 650.695 32.17 650.735 32.212 650.736 32.211 650.775 32.252 650.776 32.251 650.815 32.292 650.816 32.291 650.855 32.332 650.856 32.331 650.896 32.372 650.897 32.372 650.936 32.413 650.937 32.412 650.976 32.453 650.977 32.452 651.016 32.493 651.017 32.492 651.057 32.533 651.057 32.532 651.097 32.574 651.098 32.573 651.137 32.614 651.138 32.613 651.177 32.654 651.178 32.653 651.217 32.694 651.218 32.693 651.258 32.734 651.259 32.734 651.298 32.775 651.299 32.774 651.338 32.815 651.339 32.814 651.378 32.855 651.379 32.854 651.419 32.895 651.42 32.894 651.459 32.936 651.46 32.935 651.499 32.976 651.5 32.975 651.539 33.016 651.54 33.015 651.58 33.056 651.58 33.055 651.62 33.097 651.621 33.096 651.66 33.137 651.661 33.136 651.7 33.177 651.701 33.176 651.74 33.217 651.741 33.216 651.781 33.257 651.782 33.257 651.821 33.298 651.822 33.297 651.861 33.338 651.862 33.337 651.901 33.378 651.902 33.377 651.942 33.418 651.942 33.417 651.982 33.459 651.983 33.458 652.022 33.499 652.023 33.498 652.062 33.539 652.063 33.538 652.102 33.579 652.103 33.578 652.143 33.619 652.144 33.619 652.183 33.66 652.184 33.659 652.223 33.7 652.224 33.699 652.263 33.74 652.264 33.739 652.304 33.78 652.305 33.779 652.344 33.821 652.345 33.82 652.384 33.861 652.385 33.86 652.424 33.901 652.425 33.9 652.465 33.941 652.465 33.94 652.505 33.982 652.506 33.981 652.545 34.022 652.546 34.021 652.585 34.062 652.586 34.061 652.625 34.102 652.626 34.101 652.666 34.142 652.667 34.141 652.706 34.183 652.707 34.182 652.746 34.223 652.747 34.222 652.786 34.263 652.787 34.262 652.827 34.303 652.827 34.302 652.867 34.344 652.868 34.343 652.907 34.384 652.908 34.383 652.947 34.424 652.948 34.423 652.987 34.464 652.988 34.463 653.028 34.504 653.029 34.504 653.068 34.545 653.069 34.544 653.108 34.585 653.109 34.584 653.148 34.625 653.149 34.624 653.189 34.665 653.19 34.664 653.229 34.706 653.23 34.705 653.269 34.746 653.27 34.745 653.309 34.786 653.31 34.785 653.35 34.826 653.35 34.825 653.39 34.867 653.391 34.866 653.43 34.907 653.431 34.906 653.47 34.947 653.471 34.946 653.51 34.987 653.511 34.986 653.551 35.027 653.552 35.026 653.591 35.068 653.592 35.067 653.631 35.108 653.632 35.107 653.671 35.148 653.672 35.147 653.712 35.188 653.712 35.187 653.752 35.229 653.753 35.228 653.792 35.269 653.793 35.268 653.832 35.309 653.833 35.308 653.872 35.349 653.873 35.348 653.913 35.389 653.914 35.388 653.953 35.43 653.954 35.429 653.993 35.47 659.32 30.189 659.32 56.096 659.36 56.096 659.36 56.136 659.4 56.136 659.4 56.176 659.441 56.176 659.441 56.216 659.481 56.216 659.481 56.257 659.521 56.257 659.521 56.297 659.561 56.297 659.561 56.337 659.601 56.337 659.601 56.377 659.642 56.377 659.642 56.417 659.682 56.417 659.682 56.458 659.722 56.458 659.722 56.498 659.762 56.498 659.762 56.538 659.803 56.538 659.803 56.578 659.843 56.578 659.843 56.619 659.883 56.619 659.883 56.659 659.923 56.659 659.923 56.699 659.963 56.699 659.963 56.739 660.004 56.739 660.004 56.779 660.044 56.779 660.044 56.82 660.084 56.82 660.084 56.86 660.124 56.86 660.124 56.9 660.165 56.9 660.165 56.94 660.205 56.94 660.205 56.981 660.245 56.981 660.245 57.021 660.285 57.021 660.285 57.061 660.326 57.061 660.326 57.101 660.366 57.101 660.366 57.142 660.406 57.142 660.406 57.182 660.446 57.182 660.446 57.222 660.486 57.222 660.486 57.262 660.527 57.262 660.527 57.302 660.567 57.302 660.567 57.343 660.607 57.343 660.607 57.383 660.647 57.383 660.647 57.423 660.688 57.423 660.688 57.463 660.728 57.463 660.728 57.504 660.768 57.504 660.768 57.544 660.808 57.544 660.808 57.584 660.848 57.584 660.848 57.624 660.889 57.624 660.889 57.664 660.929 57.664 660.929 57.705 660.969 57.705 660.969 57.745 661.009 57.745 661.009 57.785 661.05 57.785 661.05 57.825 661.09 57.825 661.09 57.866 661.13 57.866 661.13 57.906 661.17 57.906 661.17 57.946 661.21 57.946 661.21 57.986 661.251 57.986 661.251 58.026 661.291 58.026 661.291 58.067 661.331 58.067 661.331 58.107 661.371 58.107 661.371 58.147 661.412 58.147 661.412 58.187 661.452 58.187 661.452 58.228 661.492 58.228 661.492 58.268 661.532 58.268 661.532 58.308 661.573 58.308 661.573 58.348 661.613 58.348 661.613 58.389 661.653 58.389 661.653 58.429 661.693 58.429 661.693 58.469 661.733 58.469 661.733 58.509 661.774 58.509 661.774 58.549 661.814 58.549 661.814 58.59 661.854 58.59 661.854 58.63 661.894 58.63 661.894 58.67 661.935 58.67 661.935 58.71 661.975 58.71 661.975 58.751 662.015 58.751 662.015 58.791 662.055 58.791 662.055 58.831 662.095 58.831 662.095 58.871 662.136 58.871 662.136 58.911 662.176 58.911 662.176 58.952 662.216 58.952 662.216 58.992 662.256 58.992 662.256 59.032 662.297 59.032 662.297 59.072 662.337 59.072 662.337 59.113 662.377 59.113 662.377 59.153 662.417 59.153 662.417 59.193 662.458 59.193 662.458 59.233 662.498 59.233 662.498 59.274 662.538 59.274 662.538 59.314 662.578 59.314 662.578 59.354 662.618 59.354 662.618 59.394 662.659 59.394 662.659 59.434 662.699 59.434 662.699 59.475 662.739 59.475 662.739 59.515 662.779 59.515 662.779 59.555 662.82 59.555 662.82 59.595 662.86 59.595 662.86 59.636 662.9 59.636 662.9 59.676 662.94 59.676 662.94 59.716 662.98 59.716 662.98 59.756 663.021 59.756 663.021 59.796 663.061 59.796 663.061 59.837 663.101 59.837 663.101 59.877 663.141 59.877 663.141 59.917 663.182 59.917 663.182 59.957 663.222 59.957 663.222 59.998 663.262 59.998 663.262 60.038 663.302 60.038 663.302 60.078 663.343 60.078 663.343 60.118 663.383 60.118 663.383 60.158 680.139 60.158 680.139 4.873 680.098 4.873 680.098 4.832"/>
          <path class="cls-4" d="M728.70111,12.30482a22.00243,22.00243,0,0,0-1.70325-1.9592l-0.04028-.04025-0.04016-.04022-0.04028-.04025-0.04016-.04022-0.04016-.04022-0.04028-.04025-0.04016-.04022-0.04028-.04025-0.04016-.04022-0.04016-.04022L726.55548,9.903l-0.04016-.04022L726.475,9.82256l-0.04016-.04022-0.04016-.04022-0.04028-.04025-0.04016-.04022L726.274,9.62138l-0.04016-.04022-0.04028-.04025-0.04016-.04022-0.04016-.04022-0.04028-.04025L726.03278,9.38l-0.04028-.04025-0.04016-.04022-0.04016-.04022L725.87189,9.219l-0.04065-.04L725.791,9.13878l-0.04016-.04022-0.04016-.04022-0.04028-.04025-0.04016-.04022-0.04028-.04025-0.04016-.04022-0.04016-.04022-0.04028-.04025-0.04016-.04022-0.04028-.04025-0.04016-.04022L725.30853,8.656l-0.04028-.04025-0.04016-.04022-0.04028-.04025L725.14764,8.495l-0.04041-.04L725.067,8.41478l-0.04016-.04022-0.04028-.04025-0.04016-.04022-0.04028-.04025-0.04016-.04022-0.04016-.04022-0.04028-.04025-0.04016-.04022L724.705,8.05266l-0.04016-.04022-0.04016-.04022L724.58441,7.932l-0.04016-.04022L724.504,7.85149l-0.04016-.04022L724.42365,7.771l-0.04028-.04025-0.04016-.04022-0.04028-.04025-0.04016-.04022-0.04016-.04022-0.04028-.04025-0.04016-.04022-0.04028-.04025-0.04016-.04022-0.04016-.04022-0.04028-.04025-0.04016-.04022L723.90082,7.248l-0.04016-.04022-0.04016-.04022-0.04028-.04025-0.04016-.04022-0.04028-.04025-0.04016-.04022-0.04028-.04025-0.04016-.04022L723.539,6.88588l-0.04028-.04025-0.04016-.04022-0.04028-.04025-0.04016-.04022L723.33722,6.685l-0.04028-.04025-0.04016-.04022-0.04028-.04025-0.04016-.04022-0.04016-.04022-0.04028-.04025-0.04016-.04022-0.04028-.04025-0.04016-.04022Q716.8158,0.001,706.49615-.00011q-11.7832,0-18.12744,8.242-6.34424,8.24245-6.34351,20.27084a36.72381,36.72381,0,0,0,2.5979,14.03448,23.725,23.725,0,0,0,5.61487,8.2691c0.01379,0.01318.02649,0.027,0.04016,0.04022s0.02649,0.0271.04028,0.04025,0.02649,0.02707.04016,0.04022,0.02649,0.0271.04028,0.04025,0.02649,0.02707.04016,0.04022,0.02649,0.02707.04016,0.04022,0.02649,0.0271.04028,0.04025,0.02649,0.02707.04016,0.04022,0.02649,0.0271.04028,0.04025,0.02649,0.027.04016,0.04022,0.02649,0.02707.04016,0.04022,0.02649,0.0271.04028,0.04025,0.02649,0.02707.04016,0.04022,0.02649,0.0271.04028,0.04025,0.02649,0.02707.04016,0.04022,0.02649,0.027.04016,0.04022,0.02649,0.0271.04028,0.04025,0.02649,0.02707.04016,0.04022,0.02649,0.0271.04028,0.04025,0.02649,0.02707.04016,0.04022,0.02649,0.0271.04028,0.04025,0.02649,0.027.04016,0.04022,0.02649,0.02707.04016,0.04022,0.02649,0.0271.04028,0.04025,0.02649,0.02707.04016,0.04022,0.02649,0.0271.04028,0.04025,0.02649,0.02707.04016,0.04022,0.02649,0.027.04016,0.04022,0.02649,0.0271.04028,0.04025,0.02649,0.02707.04016,0.04022,0.02649,0.0271.04028,0.04025,0.02649,0.02707.04016,0.04022,0.02649,0.027.04016,0.04022,0.02649,0.0271.04028,0.04025,0.02649,0.02707.04016,0.04022,0.02649,0.0271.04028,0.04025,0.02649,0.02707.04016,0.04022,0.02649,0.02707.04016,0.04022,0.02649,0.0271.04028,0.04025,0.02649,0.027.04016,0.04022,0.02649,0.0271.04028,0.04025,0.02649,0.02707.04016,0.04022,0.02649,0.02707.04016,0.04022,0.02649,0.0271.04028,0.04025,0.02649,0.027.04016,0.04022,0.02649,0.0271.04028,0.04025,0.02649,0.02707.04016,0.04022,0.02649,0.02707.04016,0.04022,0.02649,0.0271.04028,0.04025,0.02649,0.02707.04016,0.04022,0.02649,0.0271.04028,0.04025,0.02649,0.02707.04016,0.04022,0.02649,0.0271.04028,0.04025,0.02649,0.027.04016,0.04022,0.02649,0.02707.04016,0.04022,0.02649,0.0271.04028,0.04025,0.02649,0.02707.04016,0.04022,0.02649,0.0271.04028,0.04025,0.02649,0.02707.04016,0.04022,0.02649,0.02707.04016,0.04022,0.02649,0.0271.04028,0.04025,0.02649,0.02707.04016,0.04022,0.02649,0.0271.04028,0.04025,0.02649,0.02707.04016,0.04022,0.02649,0.02707.04016,0.04022,0.02649,0.0271.04028,0.04025,0.02649,0.02707.04016,0.04022,0.02649,0.0271.04028,0.04025,0.02649,0.02707.04016,0.04022,0.02649,0.02707.04016,0.04022,0.02649,0.0271.04028,0.04025,0.02649,0.027.04016,0.04022,0.02649,0.0271.04028,0.04025,0.02649,0.02707.04016,0.04022,0.02649,0.027.04016,0.04022,0.02649,0.0271.04028,0.04025,0.02649,0.027.04016,0.04022,0.02649,0.0271.04028,0.04025,0.02649,0.02707.04016,0.04022,0.02649,0.02707.04016,0.04022,0.02649,0.0271.04028,0.04025,0.02649,0.02707.04016,0.04022,0.02649,0.0271.04028,0.04025,0.02649,0.027.04016,0.04022,0.02649,0.0271.04028,0.04025,0.02649,0.02707.04016,0.04022,0.02649,0.02707.04016,0.04022,0.02649,0.0271.04028,0.04025,0.02649,0.02707.04016,0.04022,0.02649,0.0271.04028,0.04025,0.02649,0.02707.04016,0.04022,0.02649,0.02707.04016,0.04022,0.02649,0.0271.04028,0.04025,0.02649,0.02707.04016,0.04022,0.02649,0.0271.04028,0.04025,0.02649,0.027.04016,0.04022,0.02649,0.02707.04016,0.04022,0.02649,0.0271.04028,0.04025,0.02649,0.02707.04016,0.04022,0.02649,0.0271.04028,0.04025a25.54878,25.54878,0,0,0,2.662,2.22635,24.70872,24.70872,0,0,0,27.27649,0,23.93225,23.93225,0,0,0,8.257-10.45523,36.65489,36.65489,0,0,0,2.60413-14.03448Q735.06012,20.54723,728.70111,12.30482Zm-14.45947,16.208q0,14.02478-7.73047,14.02444a6.933,6.933,0,0,1-2.1709-.33978,24.87381,24.87381,0,0,1-1.49634-9.6218q0-13.94252,7.7301-13.94238a6.96173,6.96173,0,0,1,2.18494.34247,24.68622,24.68622,0,0,1,1.48254,9.537Z"/>
        </g>
        <g>
          <path class="cls-5" d="M640.49994,21.53157L661.62677,0.80968h14.44885V56.09563H659.31976V22.09822L649.93011,31.407Z"/>
          <path class="cls-5" d="M682.02509,28.5128q0-12.02843,6.34351-20.27084Q694.71283,0.001,706.496,0q11.7832,0,18.14209,8.242,6.35925,8.2424,6.35913,20.27084a36.65489,36.65489,0,0,1-2.60413,14.03448,23.93225,23.93225,0,0,1-8.257,10.45523,24.70872,24.70872,0,0,1-27.27649,0,23.91558,23.91558,0,0,1-8.23657-10.45523A36.72382,36.72382,0,0,1,682.02509,28.5128Zm16.75586,0q0,14.02478,7.7301,14.02444,7.73035,0,7.73047-14.02444,0-13.94252-7.73047-13.94238Q698.78033,14.57042,698.78094,28.5128Z"/>
        </g>
        <g class="cls-6">
          <g>
            <polygon class="cls-7" points="649.278 3.389 681.131 21.479 680.934 46.253 642.986 10.861 649.278 3.389"/>
            <polygon class="cls-7" points="685.653 4.962 710.034 25.018 709.838 37.995 680.934 14.204 685.653 4.962"/>
            <polygon class="cls-7" points="720.52 12.493 741.314 25.541 743.192 60.095 716.982 34.345 720.52 12.493"/>
            <path class="cls-7" d="M721.26508,42.207c0.24695,0.57065,14.40015,13.55188,14.40015,13.55188l-5.78333,3.85736L718.565,45.20457Z"/>
            <polygon class="cls-7" points="694.108 29.147 705.315 37.995 704.922 40.551 695.681 37.995 694.108 29.147"/>
            <polygon class="cls-7" points="653.071 22.038 661.055 30.84 659.052 33.711 651.241 24.505 653.071 22.038"/>
          </g>
        </g>
        <g>
          <g>
            <polygon class="cls-8" points="661.32 54.096 661.32 17.299 649.969 28.552 643.31 21.578 662.445 2.809 674.075 2.809 674.075 54.096 661.32 54.096"/>
            <path class="cls-9" d="M672.07562,4.80969V52.09563h-8.75586V12.50011l-6.81616,6.75748L650.00836,25.697l-3.88977-4.07343L663.261,4.80971h8.8147m4-4H661.62689L640.50006,21.5316l9.4303,9.87546L659.32,22.09825V56.09563h16.75586V0.80969h0Z"/>
          </g>
          <g>
            <path class="cls-8" d="M706.49054,55.10735a20.67,20.67,0,0,1-12.45312-3.72168,22.04194,22.04194,0,0,1-7.5625-9.5957,34.89952,34.89952,0,0,1-2.4502-13.27734c0-7.53027,1.99512-13.93994,5.92871-19.05078,3.86523-5.021,9.27637-7.46191,16.543-7.46191S719.179,4.44133,723.055,9.46379c3.94336,5.11133,5.94238,11.52,5.94238,19.04883A34.83635,34.83635,0,0,1,726.5423,41.7885a22.06541,22.06541,0,0,1-7.58105,9.5957A20.73909,20.73909,0,0,1,706.49054,55.10735ZM706.511,12.57024c-4.43945,0-9.73047,2.76563-9.73047,15.94238,0,13.24414,5.291,16.02441,9.73047,16.02441s9.73047-2.78027,9.73047-16.02441C716.24152,15.33586,710.9505,12.57024,706.511,12.57024Z"/>
            <path class="cls-9" d="M706.496,4c6.60535,0,11.50378,2.1869,14.97522,6.68535,3.71851,4.81967,5.52612,10.65106,5.52612,17.82742a32.85489,32.85489,0,0,1-2.30493,12.51642,19.82883,19.82883,0,0,1-6.90686,8.73682,20.73736,20.73736,0,0,1-22.57153.00269,19.81156,19.81156,0,0,1-6.88892-8.73627,32.92471,32.92471,0,0,1-2.3-12.51965c0-7.17868,1.80347-13.01126,5.51294-17.83078C694.99957,6.18571,699.89227,4,706.49591,4m0.015,42.53723c4.381,0,11.73047-2.34164,11.73047-18.02444,0-15.61139-7.34949-17.94238-11.73047-17.94238s-11.7301,2.331-11.7301,17.94238c0,15.6828,7.34924,18.02444,11.7301,18.02444M706.49591,0q-11.783,0-18.12744,8.24194-6.34424,8.2424-6.34338,20.27084a36.7237,36.7237,0,0,0,2.5979,14.03448,23.91541,23.91541,0,0,0,8.23657,10.45523,24.70883,24.70883,0,0,0,27.27649,0,23.93208,23.93208,0,0,0,8.257-10.45523,36.655,36.655,0,0,0,2.60425-14.03448q0-12.02843-6.35913-20.27084Q718.27887,0.001,706.49591,0h0Zm0.015,42.53723q-7.73071,0-7.7301-14.02444,0-13.94252,7.7301-13.94238,7.73035,0,7.73047,13.94238,0,14.02478-7.73047,14.02444h0Z"/>
          </g>
        </g>
      </g>
      <path class="cls-10" d="M624.87531,16.704l-4.41309-9.46289L616.00616,16.704h-8.31738L616.431,1.21574h8.01953L633.19269,16.704h-8.31738Z"/>
    </g>
    <g>
      <path class="cls-11" d="M180.72455,58.079h-12.3324a2.10242,2.10242,0,0,0-1.40247.96945,2.77263,2.77263,0,0,0-.4425,1.92938V98.70079h0v16.54852h0V152.25a1.58345,1.58345,0,0,0,1.845,1.829h12.33234a2.6679,2.6679,0,0,0,1.8913-.43573,2.034,2.034,0,0,0,.9314-1.39328V60.97786a3.21963,3.21963,0,0,0-.93134-1.92938A3.175,3.175,0,0,0,180.72455,58.079Z"/>
      <path class="cls-11" d="M154.77991,98.70079H118.54858V60.97786a2.85,2.85,0,0,0-.56909-1.92807,2.35273,2.35273,0,0,0-1.529-.96817H104.11816a2.362,2.362,0,0,0-1.539.96817,2.845,2.845,0,0,0-.5791,1.92807V152.25a1.99036,1.99036,0,0,0,2.11816,2.114h12.33234a1.97462,1.97462,0,0,0,2.098-2.114v-37.0007h36.23132a2.88348,2.88348,0,0,0,2.88348-2.88342V101.58424a2.88345,2.88345,0,0,0-2.88348-2.88345h0Z"/>
      <path class="cls-11" d="M229.86292,98.11659c-8.316,0-15.20721,2.64963-20.73187,7.94876q-8.294,7.94884-8.27759,21.24112,0.00009,13.02145,6.72223,21.03653c4.47644,5.3457,10.49542,8.01855,18.17,8.01855a23.68172,23.68172,0,0,0,6.64423-.8999,2.73924,2.73924,0,0,0,1.99854-2.63831v-9.0842a2.92335,2.92335,0,0,0-2.91479-2.91479h-2.02393c-3.749,0-6.86932-.81708-9.426-3.05762-2.5589-2.23825-3.82166-5.71936-3.82166-10.7467,0-4.567,1.42334-7.96246,4.25659-10.34018a14.32175,14.32175,0,0,1,9.46106-3.52563,13.701,13.701,0,0,1,9.18268,3.58163c2.74023,2.37772,4.3006,5.90128,4.3006,10.56134,0,0.84549.012,1.96625,0.012,2.742V152.25a1.7911,1.7911,0,0,0,.38245,1.53574,1.53214,1.53214,0,0,0,1.34.57831h11.2359a1.88882,1.88882,0,0,0,1.52167-.57831A1.90953,1.90953,0,0,0,258.459,152.25V126.89513c0-9.13419-2.57452-16.21616-7.96436-21.24112C245.10242,100.629,238.26727,98.11659,229.86292,98.11659Z"/>
      <path class="cls-11" d="M317.2215,102.02126A31.8334,31.8334,0,0,0,301.189,98.11662q-12.61,0-20.69489,7.6048-8.08832,7.60716-8.08594,21.44791,0.00009,13.84424,8.08594,21.448,8.08475,7.60716,20.69489,7.60709,18.36264,0,25.62689-14.25439,0.95517-2.32892-1.23419-3.01453l-10.00348-4.24869a2.6047,2.6047,0,0,0-3.28882,1.23419q-3.56644,5.07257-11.10046,5.07144a13.7039,13.7039,0,0,1-9.11322-3.29108q-3.9082-3.2877-3.907-10.552,0-7.262,3.907-10.55191a13.7137,13.7137,0,0,1,9.11322-3.28879q7.6734,0,11.10046,5.4805a2.58159,2.58159,0,0,0,3.28882,1.37137l10.41486-3.56308q2.32892-.82283,1.37128-3.01453A23.60078,23.60078,0,0,0,317.2215,102.02126Z"/>
      <path class="cls-11" d="M588.84711,59.04848a2.62943,2.62943,0,0,0-1.66-.96945H574.85248a2.56176,2.56176,0,0,0-1.63147.96945,2.92129,2.92129,0,0,0-.67383,1.92938v55.77661q0,12.6102-6.522,17.95233a23.7502,23.7502,0,0,1-15.55969,5.3457,27.94366,27.94366,0,0,1-7.19873-.89023,25.93074,25.93074,0,0,1-6.99048-3.1539,15.88934,15.88934,0,0,1-6.17981-7.19354,30.155,30.155,0,0,1-2.54932-12.06036V60.97786c0-.63916.19421-1.47156-0.26135-1.92938-0.45789-.45563-0.582-0.96945-1.22119-0.96945h-12.3324a3.643,3.643,0,0,0-2.07251.96945,3.48287,3.48287,0,0,0-1.11255,1.92938v55.77661c0,12.60892,4.08069,22.38458,11.39038,29.32706,7.30969,6.94479,16.88745,10.41483,28.30872,10.41483,11.41895,0,20.90442-3.47006,28.21411-10.41483,7.30957-6.9425,11.08679-16.71811,11.08679-29.32706V60.97786A2.95711,2.95711,0,0,0,588.84711,59.04848Z"/>
      <g>
        <path class="cls-11" d="M359.26257,119.76259h-0.00781V61.36382a3.96163,3.96163,0,0,0-1.48517-2.94946,1.73823,1.73823,0,0,0-.94348-0.33273H345.58862a3.4143,3.4143,0,0,0-2.88239,2.89624V152.25a2.342,2.342,0,0,0,.9613,1.53574,2.82158,2.82158,0,0,0,1.92108.57831h11.23755a2.26437,2.26437,0,0,0,1.69312-.57831,2.05565,2.05565,0,0,0,.73547-1.53574v-17.4433h0.00781V119.76259Z"/>
        <path class="cls-11" d="M385.39691,127.618a0.80365,0.80365,0,0,1,.00092-0.95047l18.289-24.89a1.02067,1.02067,0,0,0,.06738-1.17679,0.95323,0.95323,0,0,0-1.02728-.39548H388.06335a4.04119,4.04119,0,0,0-3.70013,1.831l-10.99677,15.98111v0.015l-6.0553,8.765a0.80347,0.80347,0,0,0-.00079.91238l6.05609,8.79947V136.552l10.9967,15.98343a4.03922,4.03922,0,0,0,3.70013,1.82864h14.66357a1.02039,1.02039,0,0,0,1.02728-.50851,1.13559,1.13559,0,0,0-.06738-1.24786Z"/>
      </g>
      <path class="cls-11" d="M618.86615,126.95122a0.80375,0.80375,0,0,1-.00085.95047l-18.28894,24.89a1.02067,1.02067,0,0,0-.06738,1.17679,0.95326,0.95326,0,0,0,1.02734.39548h14.66357a4.04123,4.04123,0,0,0,3.7002-1.831l10.9967-15.98117v-0.015l6.0553-8.765a0.80358,0.80358,0,0,0,.00085-0.91238l-6.056-8.79947V118.017l-10.9967-15.9834A4.03926,4.03926,0,0,0,616.2,100.205H601.53619a1.02043,1.02043,0,0,0-1.02734.50851,1.13559,1.13559,0,0,0,.06738,1.24786Z"/>
      <path class="cls-11" d="M452.05914,125.78023h-0.97046a3.06952,3.06952,0,0,1-3.06946-3.06949V112.30116a3.06952,3.06952,0,0,1,3.06946-3.06949h6.31616c6.11963,0,10.66589-1.49127,13.63623-4.59882,2.968-3.10516,4.45325-7.34814,4.45325-12.55676,0-5.20633-1.48523-9.44943-4.45325-12.55457-2.97034-3.10516-7.5166-4.89136-13.63623-4.89136H438.98871V109.2317h0.004v16.54852h-0.004V152.25a2.2166,2.2166,0,0,1-.86511,1.53574,2.5786,2.5786,0,0,1-1.82507.57831h-12.659a2.663,2.663,0,0,1-1.838-.74255,2.069,2.069,0,0,1-.866-1.37149V60.97786a3.35392,3.35392,0,0,1,1.03528-1.92807,3.43,3.43,0,0,1,1.99518-.96817h35.356c9.59436,0,17.47351,3.18539,23.642,8.98434,6.16626,5.80362,9.25049,14.37668,9.25049,25.15643q0,12.61-6.03137,20.832a28.02265,28.02265,0,0,1-16.03479,10.79938S467.14948,125.54515,452.05914,125.78023Z"/>
      <path class="cls-11" d="M487.7702,154.36409H472.78876a6.332,6.332,0,0,1-4.38318-2.5387L448.6264,124.6049c-1.01868-1.40207-.70789-2.5387.69421-2.5387h14.98145a6.332,6.332,0,0,1,4.38318,2.5387l19.77917,27.22049C489.48309,153.22746,489.1723,154.36409,487.7702,154.36409Z"/>
    </g>
  </g>
</svg>
