<?xml version="1.0" encoding="utf-8"?>
<!-- Generator: Adobe Illustrator 19.2.0, SVG Export Plug-In . SVG Version: 6.00 Build 0)  -->
<svg version="1.1" id="Layer_1" xmlns="http://www.w3.org/2000/svg" xmlns:xlink="http://www.w3.org/1999/xlink" x="0px" y="0px"
	 viewBox="0 0 700.8 300.5" style="enable-background:new 0 0 700.8 300.5;" xml:space="preserve">
<style type="text/css">
	.st0{opacity:0.79;}
	.st1{fill:#C12121;}
	.st2{fill:#FF9A22;}
	.st3{fill:#DD2C2C;}
	.st4{clip-path:url(#SVGID_2_);}
	.st5{fill:#FFFBC5;}
	.st6{fill:#FFC933;}
	.st7{fill:#D68400;}
	.st8{fill:#D1D1D1;}
	.st9{fill:#FFFFFF;}
</style>
<title>10</title>
<g id="Layer_1-2">
	<g>
		<g>
			<g class="st0">
				<polygon class="st1" points="645.9,47.9 645.9,47.9 645.9,47.8 645.9,47.8 645.9,47.8 645.8,47.8 645.8,47.7 645.8,47.7 
					645.8,47.7 645.7,47.7 645.7,47.7 645.7,47.7 645.7,47.6 645.7,47.6 645.7,47.6 645.6,47.6 645.6,47.5 645.6,47.5 645.6,47.5 
					645.5,47.5 645.5,47.5 645.5,47.5 645.5,47.4 645.5,47.4 645.5,47.4 645.4,47.4 645.4,47.3 645.4,47.3 645.4,47.3 645.3,47.3 
					645.3,47.3 645.3,47.3 645.3,47.2 645.3,47.2 645.3,47.2 645.2,47.2 645.2,47.1 645.2,47.1 645.2,47.1 645.1,47.1 645.1,47.1 
					645.1,47.1 645.1,47 645.1,47 645.1,47 645,47 645,46.9 645,46.9 645,46.9 644.9,46.9 644.9,46.9 644.9,46.9 644.9,46.8 
					644.9,46.8 644.9,46.8 644.8,46.8 644.8,46.7 644.8,46.7 644.8,46.7 644.7,46.7 644.7,46.7 644.7,46.7 644.7,46.6 644.7,46.6 
					644.7,46.6 644.6,46.6 644.6,46.5 644.6,46.5 644.6,46.5 644.5,46.5 644.5,46.5 644.5,46.5 644.5,46.4 644.4,46.4 644.4,46.4 
					644.4,46.4 644.4,46.3 644.4,46.3 644.4,46.3 644.3,46.3 644.3,46.3 644.3,46.3 644.3,46.2 644.2,46.2 644.2,46.2 644.2,46.2 
					644.2,46.1 644.2,46.1 644.2,46.1 644.1,46.1 644.1,46.1 644.1,46.1 644.1,46 644,46 644,46 644,46 644,45.9 644,45.9 644,45.9 
					643.9,45.9 643.9,45.9 643.9,45.9 643.9,45.8 643.8,45.8 643.8,45.8 643.8,45.8 643.8,45.7 643.8,45.7 643.8,45.7 643.7,45.7 
					643.7,45.7 643.7,45.7 643.7,45.6 643.6,45.6 643.6,45.6 643.6,45.6 643.6,45.5 643.6,45.5 643.6,45.5 643.5,45.5 643.5,45.5 
					643.5,45.5 643.5,45.4 643.4,45.4 643.4,45.4 643.4,45.4 643.4,45.3 643.4,45.3 643.4,45.3 643.3,45.3 643.3,45.2 643.3,45.2 
					643.3,45.2 643.2,45.2 643.2,45.2 643.2,45.2 643.2,45.1 643.2,45.1 643.2,45.1 643.1,45.1 643.1,45 643.1,45 643.1,45 643,45 
					643,45 643,45 643,44.9 643,44.9 643,44.9 642.9,44.9 642.9,44.8 642.9,44.8 642.9,44.8 642.8,44.8 642.8,44.8 642.8,44.8 
					642.8,44.7 642.8,44.7 642.8,44.7 642.7,44.7 642.7,44.6 642.7,44.6 642.7,44.6 642.6,44.6 642.6,44.6 642.6,44.6 642.6,44.5 
					642.6,44.5 642.6,44.5 642.5,44.5 642.5,44.4 642.5,44.4 642.5,44.4 642.4,44.4 642.4,44.4 642.4,44.4 642.4,44.3 642.4,44.3 
					642.4,44.3 642.3,44.3 642.3,44.2 642.3,44.2 642.3,44.2 642.2,44.2 642.2,44.2 642.2,44.2 642.2,44.1 642.2,44.1 642.2,44.1 
					642.1,44.1 642.1,44 642.1,44 642.1,44 642,44 642,44 642,44 642,43.9 642,43.9 642,43.9 641.9,43.9 641.9,43.8 627.5,43.8 
					606.3,64.6 615.8,74.4 615.8,74.4 615.8,74.5 615.8,74.5 615.8,74.5 615.9,74.5 615.9,74.6 615.9,74.6 615.9,74.6 615.9,74.6 
					616,74.6 616,74.6 616,74.7 616,74.7 616.1,74.7 616.1,74.7 616.1,74.8 616.1,74.8 616.1,74.8 616.1,74.8 616.2,74.8 
					616.2,74.8 616.2,74.9 616.2,74.9 616.3,74.9 616.3,74.9 616.3,75 616.3,75 616.3,75 616.3,75 616.4,75 616.4,75 616.4,75.1 
					616.4,75.1 616.5,75.1 616.5,75.1 616.5,75.2 616.5,75.2 616.5,75.2 616.5,75.2 616.6,75.2 616.6,75.2 616.6,75.3 616.6,75.3 
					616.7,75.3 616.7,75.3 616.7,75.4 616.7,75.4 616.7,75.4 616.7,75.4 616.8,75.4 616.8,75.4 616.8,75.5 616.8,75.5 616.9,75.5 
					616.9,75.5 616.9,75.6 616.9,75.6 616.9,75.6 616.9,75.6 617,75.6 617,75.6 617,75.7 617,75.7 617.1,75.7 617.1,75.7 
					617.1,75.8 617.1,75.8 617.1,75.8 617.1,75.8 617.2,75.8 617.2,75.8 617.2,75.9 617.2,75.9 617.3,75.9 617.3,75.9 617.3,76 
					617.3,76 617.3,76 617.3,76 617.4,76 617.4,76 617.4,76.1 617.4,76.1 617.5,76.1 617.5,76.1 617.5,76.2 617.5,76.2 617.5,76.2 
					617.5,76.2 617.6,76.2 617.6,76.2 617.6,76.3 617.6,76.3 617.7,76.3 617.7,76.3 617.7,76.4 617.7,76.4 617.7,76.4 617.7,76.4 
					617.8,76.4 617.8,76.4 617.8,76.5 617.8,76.5 617.9,76.5 617.9,76.5 617.9,76.6 617.9,76.6 617.9,76.6 617.9,76.6 618,76.7 
					618,76.6 618,76.7 618,76.7 618.1,76.7 618.1,76.7 618.1,76.8 618.1,76.8 618.1,76.8 618.1,76.8 618.2,76.9 618.2,76.8 
					618.2,76.9 618.2,76.9 618.3,76.9 618.3,76.9 618.3,77 618.3,77 618.3,77 618.3,77 618.4,77.1 618.4,77.1 618.4,77.1 
					618.4,77.1 618.5,77.1 618.5,77.1 618.5,77.2 618.5,77.2 618.5,77.2 618.5,77.2 618.6,77.3 618.6,77.3 618.6,77.3 618.6,77.3 
					618.7,77.3 618.7,77.3 618.7,77.4 618.7,77.4 618.7,77.4 618.7,77.4 618.8,77.5 618.8,77.5 618.8,77.5 618.8,77.5 618.9,77.5 
					618.9,77.5 618.9,77.6 618.9,77.6 618.9,77.6 618.9,77.6 619,77.7 619,77.7 619,77.7 619,77.7 619.1,77.7 619.1,77.7 
					619.1,77.8 619.1,77.8 619.1,77.8 619.1,77.8 619.2,77.9 619.2,77.9 619.2,77.9 619.2,77.9 619.3,77.9 619.3,77.9 619.3,78 
					619.3,78 619.3,78 619.4,78 619.4,78.1 619.4,78.1 619.4,78.1 619.4,78.1 619.5,78.1 619.5,78.1 619.5,78.2 619.5,78.2 
					619.6,78.2 619.6,78.2 619.6,78.3 619.6,78.3 619.6,78.3 619.6,78.3 619.7,78.3 619.7,78.3 619.7,78.4 619.7,78.4 619.8,78.4 
					619.8,78.4 619.8,78.5 619.8,78.5 619.8,78.5 625.2,73.2 625.2,99.1 625.2,99.1 625.2,99.2 625.2,99.2 625.2,99.2 625.3,99.2 
					625.3,99.2 625.3,99.2 625.3,99.3 625.4,99.3 625.4,99.3 625.4,99.3 625.4,99.4 625.4,99.4 625.4,99.4 625.5,99.4 625.5,99.4 
					625.5,99.4 625.5,99.5 625.6,99.5 625.6,99.5 625.6,99.5 625.6,99.6 625.6,99.6 625.6,99.6 625.7,99.6 625.7,99.6 625.7,99.6 
					625.7,99.7 625.8,99.7 625.8,99.7 625.8,99.7 625.8,99.8 625.8,99.8 625.8,99.8 625.9,99.8 625.9,99.8 625.9,99.8 625.9,99.9 
					626,99.9 626,99.9 626,99.9 626,100 626,100 626,100 626.1,100 626.1,100.1 626.1,100.1 626.1,100.1 626.2,100.1 626.2,100.1 
					626.2,100.1 626.2,100.2 626.2,100.2 626.2,100.2 626.3,100.2 626.3,100.3 626.3,100.3 626.3,100.3 626.4,100.3 626.4,100.3 
					626.4,100.3 626.4,100.4 626.4,100.4 626.4,100.4 626.5,100.4 626.5,100.5 626.5,100.5 626.5,100.5 626.6,100.5 626.6,100.5 
					626.6,100.5 626.6,100.6 626.6,100.6 626.6,100.6 626.7,100.6 626.7,100.7 626.7,100.7 626.7,100.7 626.8,100.7 626.8,100.7 
					626.8,100.7 626.8,100.8 626.8,100.8 626.8,100.8 626.9,100.8 626.9,100.9 626.9,100.9 626.9,100.9 627,100.9 627,100.9 
					627,100.9 627,101 627,101 627,101 627.1,101 627.1,101.1 627.1,101.1 627.1,101.1 627.2,101.1 627.2,101.1 627.2,101.1 
					627.2,101.2 627.3,101.2 627.3,101.2 627.3,101.2 627.3,101.3 627.3,101.3 627.3,101.3 627.4,101.3 627.4,101.3 627.4,101.3 
					627.4,101.4 627.5,101.4 627.5,101.4 627.5,101.4 627.5,101.5 627.5,101.5 627.5,101.5 627.6,101.5 627.6,101.5 627.6,101.5 
					627.6,101.6 627.7,101.6 627.7,101.6 627.7,101.6 627.7,101.7 627.7,101.7 627.7,101.7 627.8,101.7 627.8,101.7 627.8,101.7 
					627.8,101.8 627.9,101.8 627.9,101.8 627.9,101.8 627.9,101.9 627.9,101.9 627.9,101.9 628,101.9 628,101.9 628,101.9 628,102 
					628.1,102 628.1,102 628.1,102 628.1,102.1 628.1,102.1 628.1,102.1 628.2,102.1 628.2,102.1 628.2,102.1 628.2,102.2 
					628.3,102.2 628.3,102.2 628.3,102.2 628.3,102.3 628.3,102.3 628.3,102.3 628.4,102.3 628.4,102.3 628.4,102.3 628.4,102.4 
					628.5,102.4 628.5,102.4 628.5,102.4 628.5,102.5 628.5,102.5 628.5,102.5 628.6,102.5 628.6,102.5 628.6,102.5 628.6,102.6 
					628.7,102.6 628.7,102.6 628.7,102.6 628.7,102.7 628.7,102.7 628.7,102.7 628.8,102.7 628.8,102.7 628.8,102.7 628.8,102.8 
					628.9,102.8 628.9,102.8 628.9,102.8 628.9,102.9 628.9,102.9 628.9,102.9 629,102.9 629,102.9 629,102.9 629,103 629.1,103 
					629.1,103 629.1,103 629.1,103.1 629.1,103.1 629.1,103.1 629.2,103.1 629.2,103.1 629.2,103.1 629.2,103.2 646,103.2 646,47.9 
					645.9,47.9 				"/>
				<path class="st1" d="M694.5,55.3c-0.5-0.7-1.1-1.3-1.7-2l0,0l0,0l0,0l0,0l0,0l0,0l0,0l0,0l0,0l0,0l0,0l0,0l0,0l0,0l0,0l0,0l0,0
					l0,0l0,0l0,0l0,0l0,0l0,0l0,0l0,0l0,0l0,0l0,0l0,0l0,0l0,0l0,0l0,0l0,0l0,0l0,0l0,0l0,0l0,0l0,0l0,0l0,0l0,0l0,0l0,0l0,0l0,0
					l0,0l0,0l0,0l0,0l0,0l0,0l0,0l0,0l0,0l0,0l0,0l0,0l0,0l0,0l0,0l0,0l0,0l0,0l0,0l0,0l0,0l0,0l0,0l0,0l0,0l0,0l0,0l0,0l0,0l0,0
					l0,0l0,0l0,0l0,0l0,0l0,0l0,0l0,0l0,0l0,0l0,0l0,0l0,0l0,0l0,0l0,0l0,0l0,0l0,0l0,0l0,0l0,0l0,0c-4.1-4.2-9.6-6.3-16.5-6.3
					c-7.9,0-13.9,2.7-18.1,8.2c-4.2,5.5-6.3,12.3-6.3,20.3c-0.1,4.8,0.8,9.6,2.6,14c1.3,3.1,3.2,5.9,5.6,8.3c0,0,0,0,0,0
					c0,0,0,0,0,0s0,0,0,0c0,0,0,0,0,0s0,0,0,0c0,0,0,0,0,0s0,0,0,0c0,0,0,0,0,0s0,0,0,0c0,0,0,0,0,0s0,0,0,0c0,0,0,0,0,0s0,0,0,0
					c0,0,0,0,0,0s0,0,0,0c0,0,0,0,0,0s0,0,0,0c0,0,0,0,0,0s0,0,0,0c0,0,0,0,0,0s0,0,0,0c0,0,0,0,0,0s0,0,0,0c0,0,0,0,0,0s0,0,0,0
					c0,0,0,0,0,0s0,0,0,0c0,0,0,0,0,0s0,0,0,0c0,0,0,0,0,0s0,0,0,0c0,0,0,0,0,0s0,0,0,0c0,0,0,0,0,0s0,0,0,0c0,0,0,0,0,0s0,0,0,0
					c0,0,0,0,0,0s0,0,0,0c0,0,0,0,0,0s0,0,0,0c0,0,0,0,0,0s0,0,0,0c0,0,0,0,0,0s0,0,0,0c0,0,0,0,0,0s0,0,0,0c0,0,0,0,0,0s0,0,0,0
					c0,0,0,0,0,0s0,0,0,0c0,0,0,0,0,0s0,0,0,0c0,0,0,0,0,0s0,0,0,0c0,0,0,0,0,0s0,0,0,0c0,0,0,0,0,0s0,0,0,0c0,0,0,0,0,0s0,0,0,0
					c0,0,0,0,0,0s0,0,0,0c0,0,0,0,0,0s0,0,0,0c0,0,0,0,0,0s0,0,0,0c0,0,0,0,0,0s0,0,0,0c0,0,0,0,0,0s0,0,0,0c0,0,0,0,0,0s0,0,0,0
					c0,0,0,0,0,0s0,0,0,0c0,0,0,0,0,0s0,0,0,0c0,0,0,0,0,0s0,0,0,0c0,0,0,0,0,0s0,0,0,0c0,0,0,0,0,0s0,0,0,0c0,0,0,0,0,0s0,0,0,0
					c0,0,0,0,0,0s0,0,0,0c0,0,0,0,0,0s0,0,0,0c0,0,0,0,0,0s0,0,0,0c0,0,0,0,0,0s0,0,0,0c0,0,0,0,0,0s0,0,0,0c0,0,0,0,0,0s0,0,0,0
					c0,0,0,0,0,0s0,0,0,0c0,0,0,0,0,0c0.8,0.8,1.7,1.5,2.7,2.2c8.3,5.5,19,5.5,27.3,0c3.7-2.6,6.5-6.3,8.3-10.5
					c1.8-4.5,2.7-9.2,2.6-14C700.9,67.6,698.8,60.8,694.5,55.3z M680.1,71.5c0,9.3-2.6,14-7.7,14c-0.7,0-1.5-0.1-2.2-0.3
					c-1.1-3.1-1.6-6.3-1.5-9.6c0-9.3,2.6-13.9,7.7-13.9c0.7,0,1.5,0.1,2.2,0.3C679.7,65.1,680.2,68.3,680.1,71.5L680.1,71.5z"/>
			</g>
			<g>
				<polygon class="st2" points="641.9,43.8 641.9,43.8 641.9,43.8 641.8,43.8 641.8,43.8 641.8,43.8 641.8,43.7 641.7,43.7 
					641.7,43.7 641.7,43.7 641.7,43.6 641.7,43.6 641.7,43.6 641.6,43.6 641.6,43.6 641.6,43.6 641.6,43.5 641.5,43.5 641.5,43.5 
					641.5,43.5 641.5,43.4 641.5,43.4 641.5,43.4 641.4,43.4 641.4,43.3 641.4,43.3 641.4,43.3 641.3,43.3 641.3,43.3 641.3,43.3 
					641.3,43.2 641.3,43.2 641.3,43.2 641.2,43.2 641.2,43.1 641.2,43.1 641.2,43.1 641.1,43.1 641.1,43.1 641.1,43.1 641.1,43 
					641.1,43 641.1,43 641,43 641,42.9 641,42.9 641,42.9 640.9,42.9 640.9,42.9 640.9,42.9 640.9,42.8 640.9,42.8 640.9,42.8 
					640.8,42.8 640.8,42.7 640.8,42.7 640.8,42.7 640.7,42.7 640.7,42.7 640.7,42.7 640.7,42.6 640.7,42.6 640.7,42.6 640.6,42.6 
					640.6,42.5 640.6,42.5 640.6,42.5 640.5,42.5 640.5,42.5 640.5,42.5 640.5,42.4 640.5,42.4 640.5,42.4 640.4,42.4 640.4,42.3 
					640.4,42.3 640.4,42.3 640.3,42.3 640.3,42.3 640.3,42.3 640.3,42.2 640.3,42.2 640.3,42.2 640.2,42.2 640.2,42.1 640.2,42.1 
					640.2,42.1 640.1,42.1 640.1,42.1 640.1,42.1 640.1,42 640.1,42 640.1,42 640,42 640,41.9 640,41.9 640,41.9 639.9,41.9 
					639.9,41.9 639.9,41.9 639.9,41.8 639.9,41.8 639.9,41.8 639.8,41.8 639.8,41.7 639.8,41.7 639.8,41.7 639.7,41.7 639.7,41.7 
					639.7,41.7 639.7,41.6 639.7,41.6 639.7,41.6 639.6,41.6 639.6,41.5 639.6,41.5 639.6,41.5 639.5,41.5 639.5,41.5 639.5,41.5 
					639.5,41.4 639.5,41.4 639.5,41.4 639.4,41.4 639.4,41.3 639.4,41.3 639.4,41.3 639.3,41.3 639.3,41.3 639.3,41.3 639.3,41.2 
					639.3,41.2 639.3,41.2 639.2,41.2 639.2,41.1 639.2,41.1 639.2,41.1 639.1,41.1 639.1,41.1 639.1,41.1 639.1,41 639.1,41 
					639.1,41 639,41 639,40.9 639,40.9 639,40.9 638.9,40.9 638.9,40.9 638.9,40.9 638.9,40.8 638.8,40.8 638.8,40.8 638.8,40.8 
					638.8,40.7 638.8,40.7 638.8,40.7 638.7,40.7 638.7,40.7 638.7,40.7 638.7,40.6 638.6,40.6 638.6,40.6 638.6,40.6 638.6,40.5 
					638.6,40.5 638.6,40.5 638.5,40.5 638.5,40.5 638.5,40.5 638.5,40.4 638.4,40.4 638.4,40.4 638.4,40.4 638.4,40.3 638.4,40.3 
					638.4,40.3 638.3,40.3 638.3,40.3 638.3,40.3 638.3,40.2 638.2,40.2 638.2,40.2 638.2,40.2 638.2,40.1 638.2,40.1 638.2,40.1 
					638.1,40.1 638.1,40.1 638.1,40.1 638.1,40 638,40 638,40 638,40 638,39.9 638,39.9 638,39.9 637.9,39.9 637.9,39.8 637.9,39.8 
					637.9,39.8 623.4,39.8 602.3,60.5 611.7,70.4 611.7,70.4 611.8,70.4 611.8,70.4 611.8,70.5 611.8,70.5 611.9,70.5 611.9,70.5 
					611.9,70.6 611.9,70.6 611.9,70.6 611.9,70.6 612,70.6 612,70.6 612,70.7 612,70.7 612.1,70.7 612.1,70.7 612.1,70.8 
					612.1,70.8 612.1,70.8 612.1,70.8 612.2,70.8 612.2,70.8 612.2,70.9 612.2,70.9 612.3,70.9 612.3,70.9 612.3,71 612.3,71 
					612.3,71 612.3,71 612.4,71.1 612.4,71.1 612.4,71.1 612.4,71.1 612.5,71.1 612.5,71.1 612.5,71.2 612.5,71.2 612.5,71.2 
					612.5,71.2 612.6,71.3 612.6,71.3 612.6,71.3 612.6,71.3 612.7,71.3 612.7,71.3 612.7,71.4 612.7,71.4 612.7,71.4 612.7,71.4 
					612.8,71.5 612.8,71.5 612.8,71.5 612.8,71.5 612.9,71.5 612.9,71.5 612.9,71.6 612.9,71.6 612.9,71.6 612.9,71.6 613,71.7 
					613,71.7 613,71.7 613,71.7 613.1,71.7 613.1,71.7 613.1,71.8 613.1,71.8 613.1,71.8 613.1,71.8 613.2,71.9 613.2,71.9 
					613.2,71.9 613.2,71.9 613.3,71.9 613.3,71.9 613.3,72 613.3,72 613.3,72 613.3,72 613.4,72.1 613.4,72.1 613.4,72.1 
					613.4,72.1 613.5,72.1 613.5,72.1 613.5,72.2 613.5,72.2 613.5,72.2 613.5,72.2 613.6,72.3 613.6,72.3 613.6,72.3 613.6,72.3 
					613.7,72.3 613.7,72.3 613.7,72.4 613.7,72.4 613.8,72.4 613.8,72.4 613.8,72.5 613.8,72.5 613.8,72.5 613.8,72.5 613.9,72.5 
					613.9,72.5 613.9,72.6 613.9,72.6 614,72.6 614,72.6 614,72.7 614,72.7 614,72.7 614,72.7 614.1,72.7 614.1,72.7 614.1,72.8 
					614.1,72.8 614.2,72.8 614.2,72.8 614.2,72.9 614.2,72.9 614.2,72.9 614.2,72.9 614.3,72.9 614.3,72.9 614.3,73 614.3,73 
					614.4,73 614.4,73 614.4,73.1 614.4,73.1 614.4,73.1 614.4,73.1 614.5,73.1 614.5,73.1 614.5,73.2 614.5,73.2 614.6,73.2 
					614.6,73.2 614.6,73.3 614.6,73.3 614.6,73.3 614.6,73.3 614.7,73.3 614.7,73.3 614.7,73.4 614.7,73.4 614.8,73.4 614.8,73.4 
					614.8,73.5 614.8,73.5 614.8,73.5 614.8,73.5 614.9,73.5 614.9,73.5 614.9,73.6 614.9,73.6 615,73.6 615,73.6 615,73.7 
					615,73.7 615,73.7 615,73.7 615.1,73.7 615.1,73.7 615.1,73.8 615.1,73.8 615.2,73.8 615.2,73.8 615.2,73.9 615.2,73.9 
					615.2,73.9 615.2,73.9 615.3,73.9 615.3,73.9 615.3,74 615.3,74 615.4,74 615.4,74 615.4,74.1 615.4,74.1 615.4,74.1 
					615.4,74.1 615.5,74.1 615.5,74.1 615.5,74.2 615.5,74.2 615.6,74.2 615.6,74.2 615.6,74.3 615.6,74.3 615.6,74.3 615.6,74.3 
					615.7,74.3 615.7,74.3 615.7,74.4 615.7,74.4 615.8,74.4 615.8,74.4 615.8,74.5 621.1,69.2 621.1,95.1 621.2,95.1 621.2,95.1 
					621.2,95.1 621.2,95.2 621.2,95.2 621.2,95.2 621.3,95.2 621.3,95.3 621.3,95.3 621.3,95.3 621.4,95.3 621.4,95.3 621.4,95.3 
					621.4,95.4 621.5,95.4 621.5,95.4 621.5,95.4 621.5,95.5 621.5,95.5 621.5,95.5 621.6,95.5 621.6,95.5 621.6,95.5 621.6,95.6 
					621.7,95.6 621.7,95.6 621.7,95.6 621.7,95.7 621.7,95.7 621.7,95.7 621.8,95.7 621.8,95.7 621.8,95.7 621.8,95.8 621.9,95.8 
					621.9,95.8 621.9,95.8 621.9,95.9 621.9,95.9 621.9,95.9 622,95.9 622,95.9 622,95.9 622,96 622.1,96 622.1,96 622.1,96 
					622.1,96.1 622.1,96.1 622.1,96.1 622.2,96.1 622.2,96.1 622.2,96.1 622.2,96.2 622.3,96.2 622.3,96.2 622.3,96.2 622.3,96.3 
					622.3,96.3 622.3,96.3 622.4,96.3 622.4,96.3 622.4,96.3 622.4,96.4 622.5,96.4 622.5,96.4 622.5,96.4 622.5,96.5 622.5,96.5 
					622.5,96.5 622.6,96.5 622.6,96.5 622.6,96.5 622.6,96.6 622.7,96.6 622.7,96.6 622.7,96.6 622.7,96.7 622.7,96.7 622.7,96.7 
					622.8,96.7 622.8,96.7 622.8,96.7 622.8,96.8 622.9,96.8 622.9,96.8 622.9,96.8 622.9,96.9 622.9,96.9 622.9,96.9 623,96.9 
					623,96.9 623,96.9 623,97 623.1,97 623.1,97 623.1,97 623.1,97.1 623.1,97.1 623.1,97.1 623.2,97.1 623.2,97.1 623.2,97.1 
					623.2,97.2 623.3,97.2 623.3,97.2 623.3,97.2 623.3,97.3 623.3,97.3 623.3,97.3 623.4,97.3 623.4,97.3 623.4,97.3 623.4,97.4 
					623.5,97.4 623.5,97.4 623.5,97.4 623.5,97.5 623.5,97.5 623.5,97.5 623.6,97.5 623.6,97.5 623.6,97.5 623.6,97.6 623.7,97.6 
					623.7,97.6 623.7,97.6 623.7,97.7 623.7,97.7 623.7,97.7 623.8,97.7 623.8,97.8 623.8,97.8 623.8,97.8 623.9,97.8 623.9,97.8 
					623.9,97.8 623.9,97.9 623.9,97.9 623.9,97.9 624,97.9 624,98 624,98 624,98 624.1,98 624.1,98 624.1,98 624.1,98.1 624.1,98.1 
					624.1,98.1 624.2,98.1 624.2,98.2 624.2,98.2 624.2,98.2 624.3,98.2 624.3,98.2 624.3,98.2 624.3,98.3 624.3,98.3 624.3,98.3 
					624.4,98.3 624.4,98.4 624.4,98.4 624.4,98.4 624.5,98.4 624.5,98.4 624.5,98.4 624.5,98.5 624.5,98.5 624.5,98.5 624.6,98.5 
					624.6,98.6 624.6,98.6 624.6,98.6 624.7,98.6 624.7,98.6 624.7,98.6 624.7,98.7 624.7,98.7 624.7,98.7 624.8,98.7 624.8,98.8 
					624.8,98.8 624.8,98.8 624.9,98.8 624.9,98.8 624.9,98.8 624.9,98.9 624.9,98.9 624.9,98.9 625,98.9 625,99 625,99 625,99 
					625.1,99 625.1,99 625.1,99 625.1,99.1 625.2,99.1 625.2,99.1 625.2,99.1 625.2,99.2 641.9,99.2 641.9,43.9 641.9,43.9 				"/>
				<path class="st2" d="M690.5,51.3c-0.5-0.7-1.1-1.3-1.7-2l0,0l0,0l0,0l0,0l0,0l0,0l0,0l0,0l0,0l0,0l0,0l0,0l0,0l0,0l0,0l0,0l0,0
					l0,0l0,0l0,0l0,0l0,0l0,0l0,0l0,0l0,0l0,0l0,0l0,0l0,0l0,0l0,0l0,0l0,0l0,0l0,0l0,0l0,0l0,0l0,0l0,0l0,0l0,0l0,0l0,0l0,0l0,0
					l0,0l0,0l0,0l0,0l0,0l0,0l0,0l0,0l0,0l0,0l0,0l0,0l0,0l0,0l0,0l0,0l0,0l0,0l0,0l0,0l0,0l0,0l0,0l0,0l0,0l0,0l0,0l0,0l0,0l0,0
					l0,0l0,0l0,0l0,0l0,0l0,0l0,0l0,0l0,0l0,0l0,0l0,0l0,0l0,0l0,0l0,0l0,0l0,0l0,0l0,0l0,0l0,0l0,0c-4.1-4.2-9.6-6.3-16.5-6.3
					c-7.9,0-13.9,2.7-18.1,8.2c-4.2,5.5-6.3,12.3-6.3,20.3c-0.1,4.8,0.8,9.6,2.6,14c1.3,3.1,3.2,5.9,5.6,8.3c0,0,0,0,0,0s0,0,0,0
					c0,0,0,0,0,0s0,0,0,0c0,0,0,0,0,0s0,0,0,0c0,0,0,0,0,0s0,0,0,0c0,0,0,0,0,0s0,0,0,0c0,0,0,0,0,0s0,0,0,0c0,0,0,0,0,0s0,0,0,0
					c0,0,0,0,0,0s0,0,0,0c0,0,0,0,0,0s0,0,0,0c0,0,0,0,0,0s0,0,0,0c0,0,0,0,0,0s0,0,0,0c0,0,0,0,0,0s0,0,0,0c0,0,0,0,0,0s0,0,0,0
					c0,0,0,0,0,0s0,0,0,0c0,0,0,0,0,0s0,0,0,0c0,0,0,0,0,0s0,0,0,0c0,0,0,0,0,0s0,0,0,0c0,0,0,0,0,0s0,0,0,0c0,0,0,0,0,0s0,0,0,0
					c0,0,0,0,0,0s0,0,0,0c0,0,0,0,0,0s0,0,0,0c0,0,0,0,0,0s0,0,0,0c0,0,0,0,0,0s0,0,0,0c0,0,0,0,0,0s0,0,0,0c0,0,0,0,0,0s0,0,0,0
					c0,0,0,0,0,0s0,0,0,0c0,0,0,0,0,0s0,0,0,0c0,0,0,0,0,0s0,0,0,0c0,0,0,0,0,0s0,0,0,0c0,0,0,0,0,0s0,0,0,0c0,0,0,0,0,0s0,0,0,0
					c0,0,0,0,0,0s0,0,0,0c0,0,0,0,0,0s0,0,0,0c0,0,0,0,0,0s0,0,0,0c0,0,0,0,0,0s0,0,0,0c0,0,0,0,0,0s0,0,0,0c0,0,0,0,0,0s0,0,0,0
					c0,0,0,0,0,0s0,0,0,0c0,0,0,0,0,0s0,0,0,0c0,0,0,0,0,0s0,0,0,0c0,0,0,0,0,0s0,0,0,0c0,0,0,0,0,0s0,0,0,0c0,0,0,0,0,0s0,0,0,0
					c0,0,0,0,0,0s0,0,0,0c0,0,0,0,0,0s0,0,0,0c0,0,0,0,0,0s0,0,0,0c0,0,0,0,0,0s0,0,0,0c0,0,0,0,0,0s0,0,0,0c0,0,0,0,0,0s0,0,0,0
					c0,0,0,0,0,0s0,0,0,0c0.8,0.8,1.7,1.5,2.7,2.2c8.3,5.5,19,5.5,27.3,0c3.7-2.6,6.5-6.3,8.3-10.5c1.8-4.5,2.7-9.2,2.6-14
					C696.9,63.6,694.7,56.8,690.5,51.3z M676,67.5c0,9.3-2.6,14-7.7,14c-0.7,0-1.5-0.1-2.2-0.3c-1.1-3.1-1.6-6.3-1.5-9.6
					c0-9.3,2.6-13.9,7.7-13.9c0.7,0,1.5,0.1,2.2,0.3C675.7,61,676.2,64.3,676,67.5L676,67.5z"/>
			</g>
			<g>
				<path class="st3" d="M602.3,60.5l21.1-20.7h14.4v55.3h-16.8v-34l-9.4,9.3L602.3,60.5z"/>
				<path class="st3" d="M643.8,67.5c0-8,2.1-14.8,6.3-20.3c4.2-5.5,10.3-8.2,18.1-8.2c7.9,0,13.9,2.7,18.1,8.2
					c4.2,5.5,6.4,12.3,6.4,20.3c0.1,4.8-0.8,9.6-2.6,14c-1.7,4.2-4.6,7.8-8.3,10.5c-8.3,5.5-19,5.5-27.3,0
					c-3.7-2.6-6.5-6.3-8.2-10.5C644.7,77.1,643.8,72.3,643.8,67.5z M660.6,67.5c0,9.3,2.6,14,7.7,14c5.2,0,7.7-4.7,7.7-14
					c0-9.3-2.6-13.9-7.7-13.9C663.2,53.6,660.6,58.2,660.6,67.5z"/>
			</g>
			<g>
				<defs>
					<path id="SVGID_1_" d="M641.9,43.9L641.9,43.9l0,55.3h-16.8v0h0v0h0v0h0v0h0v0h0v0h0v0h0v0h0v0h0v0h0v0h0v0h0v0h0v0h0v0h0v0h0
						v0h0v0h0v0h0v0h0v0h0v0h0v0h0v0h0v0h0v0h0v0h0v0h0v0h0v0h0v0h0v0h0v0h0v0h0v0h0v0h0v0h0v0h0v0h0v0h0v0h0v0h0v0h0v0h0v0h0v0h0v0
						h0v0h0v0h0v0h0v0h0v0h0v0h0v0h0v0h0v0h0v0h0v0h0v0h0v0h0v0h0v0h0v0h0v0h0v0h0v0h0v0h0v0h0v0h0v0h0v0h0v0h0v0h0v0h0v0h0v0h0v0h0
						v0h0v0h0v0h0v0h0v0h0v0h0v0h0v0h0v0h0v0h0v0h0v0h0v0h0v0h0v0h0v0h0v0h0v0h0v0h0v0h0v0h0v0h0v0h0v0h0V69.2l-5.3,5.3l0,0l0,0l0,0
						l0,0l0,0l0,0l0,0l0,0l0,0l0,0l0,0l0,0l0,0l0,0l0,0l0,0l0,0l0,0l0,0l0,0l0,0l0,0l0,0l0,0l0,0l0,0l0,0l0,0l0,0l0,0l0,0l0,0l0,0
						l0,0l0,0l0,0l0,0l0,0l0,0l0,0l0,0l0,0l0,0l0,0l0,0l0,0l0,0l0,0l0,0l0,0l0,0l0,0l0,0l0,0l0,0l0,0l0,0l0,0l0,0l0,0l0,0l0,0l0,0
						l0,0l0,0l0,0l0,0l0,0l0,0l0,0l0,0l0,0l0,0l0,0l0,0l0,0l0,0l0,0l0,0l0,0l0,0l0,0l0,0l0,0l0,0l0,0l0,0l0,0l0,0l0,0l0,0l0,0l0,0
						l0,0l0,0l0,0l0,0l0,0l0,0l0,0l0,0l0,0l0,0l0,0l0,0l0,0l0,0l0,0l0,0l0,0l0,0l0,0l0,0l0,0l0,0l0,0l0,0l0,0l0,0l0,0l0,0l0,0l0,0
						l0,0l0,0l0,0l0,0l0,0l0,0l0,0l0,0l0,0l0,0l0,0l0,0l0,0l0,0l0,0l0,0l0,0l0,0l0,0l0,0l0,0l0,0l0,0l0,0l0,0l0,0l0,0l0,0l0,0l0,0
						l0,0l0,0l0,0l0,0l0,0l0,0l0,0l0,0l0,0l0,0l0,0l0,0l0,0l0,0l0,0l0,0l0,0l0,0l0,0l0,0l0,0l0,0l0,0l0,0l0,0l0,0l0,0l0,0l0,0l0,0
						l0,0l0,0l0,0l0,0l0,0l0,0l0,0l0,0l0,0l0,0l0,0l0,0l0,0l0,0l0,0l0,0l0,0l0,0l0,0l-9.4-9.9l21.1-20.7h14.4v0h0v0h0v0h0v0h0v0h0v0
						h0v0h0v0h0v0h0v0h0v0h0v0h0v0h0v0h0v0h0v0h0v0h0v0h0v0h0v0h0v0h0v0h0v0h0v0h0v0h0v0h0v0h0v0h0v0h0v0h0v0h0v0h0v0h0v0h0v0h0v0h0
						v0h0v0h0v0h0v0h0v0h0v0h0v0h0v0h0v0h0v0h0v0h0v0h0v0h0v0h0v0h0v0h0v0h0v0h0v0h0v0h0v0h0v0h0v0h0v0h0v0h0v0h0v0h0v0h0v0h0v0h0v0
						h0v0h0v0h0v0h0v0h0v0h0v0h0v0h0v0h0v0h0v0h0v0h0v0h0v0h0v0h0v0h0v0h0v0h0v0h0v0h0v0h0v0h0v0h0v0h0v0h0v0h0v0h0v0h0v0h0v0h0v0h0
						v0h0L641.9,43.9L641.9,43.9L641.9,43.9L641.9,43.9L641.9,43.9L641.9,43.9z M696.9,71.6c0.1,4.8-0.8,9.6-2.6,14
						c-1.7,4.2-4.6,7.8-8.3,10.5c-8.3,5.5-19,5.5-27.3,0c-0.9-0.7-1.8-1.4-2.7-2.2c0,0,0,0,0,0s0,0,0,0c0,0,0,0,0,0s0,0,0,0l0,0
						c0,0,0,0,0,0c0,0,0,0,0,0s0,0,0,0c0,0,0,0,0,0l0,0c0,0,0,0,0,0s0,0,0,0c0,0,0,0,0,0s0,0,0,0l0,0c0,0,0,0,0,0c0,0,0,0,0,0
						s0,0,0,0c0,0,0,0,0,0s0,0,0,0c0,0,0,0,0,0l0,0c0,0,0,0,0,0s0,0,0,0c0,0,0,0,0,0s0,0,0,0l0,0c0,0,0,0,0,0c0,0,0,0,0,0s0,0,0,0
						c0,0,0,0,0,0l0,0c0,0,0,0,0,0s0,0,0,0c0,0,0,0,0,0s0,0,0,0l0,0c0,0,0,0,0,0c0,0,0,0,0,0s0,0,0,0c0,0,0,0,0,0l0,0c0,0,0,0,0,0
						s0,0,0,0c0,0,0,0,0,0s0,0,0,0l0,0c0,0,0,0,0,0c0,0,0,0,0,0s0,0,0,0c0,0,0,0,0,0s0,0,0,0c0,0,0,0,0,0l0,0c0,0,0,0,0,0s0,0,0,0
						c0,0,0,0,0,0s0,0,0,0l0,0c0,0,0,0,0,0c0,0,0,0,0,0s0,0,0,0c0,0,0,0,0,0l0,0c0,0,0,0,0,0s0,0,0,0c0,0,0,0,0,0s0,0,0,0l0,0
						c0,0,0,0,0,0c0,0,0,0,0,0s0,0,0,0c0,0,0,0,0,0l0,0c0,0,0,0,0,0s0,0,0,0c0,0,0,0,0,0s0,0,0,0l0,0c0,0,0,0,0,0c0,0,0,0,0,0
						s0,0,0,0c0,0,0,0,0,0s0,0,0,0c0,0,0,0,0,0l0,0c0,0,0,0,0,0s0,0,0,0c0,0,0,0,0,0s0,0,0,0l0,0c0,0,0,0,0,0c0,0,0,0,0,0s0,0,0,0
						c0,0,0,0,0,0l0,0c0,0,0,0,0,0s0,0,0,0c0,0,0,0,0,0s0,0,0,0c-2.4-2.3-4.4-5.1-5.6-8.3c-1.8-4.5-2.7-9.2-2.6-14
						c0-8,2.1-14.8,6.3-20.3c4.2-5.5,10.3-8.2,18.1-8.2c6.9,0,12.4,2.1,16.5,6.3l0,0l0,0l0,0l0,0l0,0l0,0l0,0l0,0l0,0l0,0l0,0l0,0
						l0,0l0,0l0,0l0,0l0,0l0,0l0,0l0,0l0,0l0,0l0,0l0,0l0,0l0,0l0,0l0,0l0,0l0,0l0,0l0,0l0,0l0,0l0,0l0,0l0,0l0,0l0,0l0,0l0,0l0,0
						l0,0l0,0l0,0l0,0l0,0l0,0l0,0l0,0l0,0l0,0l0,0l0,0l0,0l0,0l0,0l0,0l0,0l0,0l0,0l0,0l0,0l0,0l0,0l0,0l0,0l0,0l0,0l0,0l0,0l0,0
						l0,0l0,0l0,0l0,0l0,0l0,0l0,0l0,0l0,0l0,0l0,0l0,0l0,0l0,0l0,0l0,0l0,0l0,0l0,0l0,0l0,0l0,0l0,0l0,0l0,0l0,0l0,0l0,0
						c0.6,0.6,1.2,1.3,1.7,2C694.7,56.8,696.9,63.6,696.9,71.6L696.9,71.6L696.9,71.6z M674.6,58c-0.7-0.2-1.4-0.3-2.2-0.3
						c-5.2,0-7.7,4.6-7.7,13.9c-0.1,3.3,0.4,6.5,1.5,9.6c0.7,0.2,1.4,0.3,2.2,0.3c5.2,0,7.7-4.7,7.7-14
						C676.2,64.3,675.7,61,674.6,58z"/>
				</defs>
				<clipPath id="SVGID_2_">
					<use xlink:href="#SVGID_1_"  style="overflow:visible;"/>
				</clipPath>
				<g class="st4">
					<g>
						<polygon class="st5" points="611.1,42.4 642.9,60.5 642.7,85.3 604.8,49.9 						"/>
						<polygon class="st5" points="647.5,44 671.8,64 671.6,77 642.7,53.2 						"/>
						<polygon class="st5" points="682.3,51.5 703.1,64.5 705,99.1 678.8,73.3 						"/>
						<path class="st5" d="M683.1,81.2c0.2,0.6,14.4,13.6,14.4,13.6l-5.8,3.9l-11.3-14.4L683.1,81.2z"/>
						<polygon class="st5" points="655.9,68.1 667.1,77 666.7,79.6 657.5,77 						"/>
						<polygon class="st5" points="614.9,61 622.9,69.8 620.9,72.7 613,63.5 						"/>
					</g>
				</g>
			</g>
			<g>
				<g>
					<polygon class="st6" points="623.1,93.1 623.1,56.3 611.8,67.6 605.1,60.6 624.3,41.8 635.9,41.8 635.9,93.1 					"/>
					<path class="st7" d="M633.9,43.8v47.3h-8.8V51.5l-6.8,6.8l-6.5,6.4l-3.9-4.1l17.1-16.8L633.9,43.8 M637.9,39.8h-14.4
						l-21.1,20.7l9.4,9.9l9.4-9.3v34h16.8L637.9,39.8L637.9,39.8L637.9,39.8z"/>
				</g>
				<g>
					<path class="st6" d="M668.3,94.1c-4.4,0.1-8.8-1.2-12.5-3.7c-3.4-2.4-6-5.7-7.6-9.6c-1.7-4.2-2.5-8.7-2.5-13.3
						c0-7.5,2-13.9,5.9-19.1c3.9-5,9.3-7.5,16.5-7.5s12.7,2.4,16.6,7.5c3.9,5.1,5.9,11.5,5.9,19c0.1,4.5-0.8,9.1-2.5,13.3
						c-1.6,3.8-4.2,7.2-7.6,9.6C677.1,92.9,672.7,94.2,668.3,94.1z M668.3,51.6c-4.4,0-9.7,2.8-9.7,15.9c0,13.2,5.3,16,9.7,16
						s9.7-2.8,9.7-16C678,54.3,672.8,51.6,668.3,51.6z"/>
					<path class="st7" d="M668.3,43c6.6,0,11.5,2.2,15,6.7c3.7,4.8,5.5,10.7,5.5,17.8c0.1,4.3-0.7,8.5-2.3,12.5
						c-1.4,3.5-3.8,6.5-6.9,8.7c-6.9,4.5-15.7,4.5-22.6,0c-3.1-2.2-5.5-5.2-6.9-8.7c-1.6-4-2.4-8.2-2.3-12.5c0-7.2,1.8-13,5.5-17.8
						C656.8,45.2,661.7,43,668.3,43 M668.3,85.5c4.4,0,11.7-2.3,11.7-18c0-15.6-7.3-17.9-11.7-17.9s-11.7,2.3-11.7,17.9
						C656.6,83.2,663.9,85.5,668.3,85.5 M668.3,39c-7.9,0-13.9,2.7-18.1,8.2c-4.2,5.5-6.3,12.3-6.3,20.3c-0.1,4.8,0.8,9.6,2.6,14
						c1.7,4.2,4.6,7.8,8.2,10.5c8.3,5.5,19,5.5,27.3,0c3.7-2.6,6.5-6.3,8.3-10.5c1.8-4.5,2.7-9.2,2.6-14c0-8-2.1-14.8-6.4-20.3
						C682.2,41.7,676.2,39,668.3,39L668.3,39z M668.3,81.5c-5.2,0-7.7-4.7-7.7-14c0-9.3,2.6-13.9,7.7-13.9c5.2,0,7.7,4.6,7.7,13.9
						C676,76.9,673.5,81.5,668.3,81.5L668.3,81.5z"/>
				</g>
			</g>
		</g>
		<path class="st8" d="M586.7,55.7l-4.4-9.5l-4.5,9.5h-8.3l8.7-15.5h8l8.7,15.5H586.7z"/>
	</g>
	<g>
		<path class="st9" d="M273.2,87.5h167h8.6h89.8l-16.4-16.4h-65.6V31.2l0-7.4l-4.8-2.2c-18.1-8.2-40.3-13.9-64.2-16.5
			c0,0-23.1-1.6-30.8-1.6c-7.7,0-30.8,1.6-30.8,1.6c-24,2.6-46.1,8.3-64.2,16.5l-4.8,2.2l0,47.3h-69.6l-16.2,16.4h86.5H273.2z
			 M330.2,21.2l2.6-0.3c0,0,18-1.1,24-1.1c6,0,24,1.1,24,1.1l2.6,0.3c21.1,2.1,40.7,6.7,56.9,13.3v45.6h-167V34.5
			C289.5,27.9,309,23.3,330.2,21.2z"/>
		<polygon class="st9" points="177.4,174.5 177.4,104.4 160.6,104.4 160.6,131.5 134.4,131.5 134.4,104.4 117.5,104.4 117.5,174.5 
			134.4,174.5 134.4,147.2 160.6,147.2 160.6,174.5 		"/>
		<path class="st9" d="M221.3,104.4l-28,70.1h18.1l4-11h27.7l4,11h18.1l-28-70.1H221.3z M220.8,148.7l5-13.6
			c1.5-4,3.3-10.3,3.4-10.3h0.1c0.1,0,1.9,6.3,3.4,10.3l5,13.6H220.8z"/>
		<path class="st9" d="M310.6,119.6c5.5,0,11.5,2.5,14.7,6.5l17.1-4.5c-6.2-11.2-18-18.6-31.8-18.6c-20.1,0-36.4,15.3-36.4,36.5
			c0,21.1,16.2,36.5,36.4,36.5c14.7,0,27.2-8.2,33.1-20.6l-17-4.4c-2.9,4.8-9.3,8.2-16,8.2c-10.9,0-18.8-7.5-18.8-19.6
			C291.8,127.9,299,119.6,310.6,119.6z"/>
		<path class="st9" d="M380,104.4h-16.8v70.1H380v-23.2l5.9-5.9l21.2,29.1h19.8L397,134.2l29.7-29.8h-20.6l-17,16.9
			c-7.1,7.1-9.1,9.5-9.2,9.5h-0.1c-0.1,0,0.2-3.4,0.2-15V104.4z"/>
		<path class="st9" d="M500.9,128.4c0-14.4-10.6-24-28.2-24h-26.1v70.1h16.8v-22.8h8.6l13,22.8h18.8l-15.5-25.8
			C496.4,144.8,500.9,137.8,500.9,128.4z M475,136.7h-11.6v-16.6H475c6,0,8.4,4.5,8.4,8.3C483.4,132.2,481,136.7,475,136.7z"/>
		<path class="st9" d="M566.5,104.4v38.6c0,12-4.9,17.2-14.1,17.2c-9.2,0-14.1-5.2-14.1-17.2v-38.6h-16.8v39
			c0,21,12.3,32.6,30.9,32.6c18.5,0,30.9-11.5,30.9-32.6v-39H566.5z"/>
		<path class="st9" d="M387.2,222.5l-10.9,9c-3-1.8-6.3-3.2-9.8-4.1l-1.3-14h-16.8l-1.3,14c-3.5,0.9-6.8,2.3-9.8,4.1l-10.9-9
			l-11.9,11.9l9,10.9c-1.3,2.3-2.5,4.7-3.3,7.3c5.6,3.9,11.6,7.4,17.9,10.5c0.9-9.5,8.9-17,18.7-17c9.8,0,17.8,7.4,18.7,17
			c6.3-3,12.3-6.5,17.9-10.5c-0.9-2.5-2-5-3.3-7.3l9-10.9L387.2,222.5z"/>
		<path class="st9" d="M440.2,191.3h-167h-15.6h-86.8l16.4,16.4h69.6v6.6l0.5,1.4c0.9,2.4,23,60.2,97.2,80.7l2.2,0.6l2.2-0.6
			c74.2-20.5,96.3-78.3,97.2-80.7l0.5-1.4v-6.6h65.6l16.5-16.4h-89.9H440.2z M356.7,279.9c-26.6-7.8-48.7-21.7-65.8-41.5
			c-10.8-12.5-16.2-23.7-17.7-27.3v-12.8h167v12.8C436.8,219.1,415.5,262.7,356.7,279.9z"/>
		<polygon class="st9" points="339.9,59.6 330.9,50.8 339.9,42 333,42 323.6,50.8 333,59.6 		"/>
		<polygon class="st9" points="366.7,38.8 360.9,38.8 348.1,64 354.4,64 		"/>
		<polygon class="st9" points="381.7,59.6 391.2,50.8 381.7,42 374.9,42 383.8,50.8 374.9,59.6 		"/>
	</g>
</g>
</svg>
