<svg id="Layer_1" data-name="Layer 1" xmlns="http://www.w3.org/2000/svg" viewBox="0 0 103.36231 74.70722">
  <defs>
    <style>
      .cls-1 {
        fill: #fff;
      }

      .cls-2 {
        fill: #ffc933;
      }
    </style>
  </defs>
  <title>brain</title>
  <g>
    <path class="cls-1" d="M1364.43945,1219.17383a10.961,10.961,0,0,1-3.05371-.40137,1.49906,1.49906,0,0,1-1.04785-1.50488c0.127-2.56934-4.98926-4.96289-7.48633-5.71973-5.53223-1.48437-8.40332-4.37793-9.88379-6.87891q-0.33984.06885-.67187,0.12207a39.37187,39.37187,0,0,1-25.0918-12.792,24.06385,24.06385,0,0,1,13.71094-43.35937,17.14788,17.14788,0,0,1,17.96973-2.75391,17.13143,17.13143,0,0,1,18.87012,3.53125,16.94876,16.94876,0,0,1,3.51563-.96094,53.406,53.406,0,0,1,28.335,25.28613,16.90337,16.90337,0,0,1,.18164,3.46973,17.166,17.166,0,0,1-17.39453,29.05371,17.09181,17.09181,0,0,1-6.56543,3.751c-1.30957,3.77832-3.3877,6.43652-6.18457,7.9082A11.14137,11.14137,0,0,1,1364.43945,1219.17383Zm-1.209-3.05664c2.23144,0.334,7.53906.21777,9.98535-7.76953a1.50178,1.50178,0,0,1,1.06934-1.01562,14.1086,14.1086,0,0,0,6.70117-3.88184,1.49557,1.49557,0,0,1,1.71094-.31641,14.16352,14.16352,0,0,0,14.623-24.06055,1.49882,1.49882,0,0,1-.57715-1.32617,14.07723,14.07723,0,0,0-8.08105-14.13672,1.496,1.496,0,0,1-.83105-1.05469,14.11946,14.11946,0,0,0-19.81445-9.99023,1.49508,1.49508,0,0,1-1.74707-.36035,14.14146,14.14146,0,0,0-16.73047-3.32031,1.50115,1.50115,0,0,1-1.30273.001,14.15071,14.15071,0,0,0-15.73633,2.35938,1.53406,1.53406,0,0,1-1.05566.39941,13.81888,13.81888,0,0,0-2.59668.16211,14.104,14.104,0,0,0-10.791,8.43457,1.50127,1.50127,0,0,1-1.09375.88184,14.15289,14.15289,0,0,0,1.35059,27.98828,1.5004,1.5004,0,0,1,1.208.83789,14.119,14.119,0,0,0,9.44336,7.582,1.50659,1.50659,0,0,1,.70215.38867,14.05308,14.05308,0,0,0,13.68652,3.57227,1.50335,1.50335,0,0,1,1.75488.81348c1.43457,3.07813,4.31641,5.2168,8.56641,6.3584C1354.64844,1208.958,1362.22754,1211.39258,1363.23047,1216.11719Z" transform="translate(-1302.47993 -1144.46661)"/>
    <path class="cls-1" d="M1389.1084,1186.44434q-0.6167,0-1.27637-.04883a1.50038,1.50038,0,0,1,.22656-2.99219c7.81348,0.60254,8.65625-5.44922,8.68945-5.707a1.50029,1.50029,0,0,1,2.97656.37891C1399.34375,1181.07031,1396.625,1186.44434,1389.1084,1186.44434Z" transform="translate(-1302.47993 -1144.46661)"/>
    <path class="cls-1" d="M1382.99609,1206.54981a1.51859,1.51859,0,0,1-.45215-0.06934,8.76278,8.76278,0,0,1-5.4082-5.791,1.5001,1.5001,0,0,1,2.88477-.82422,5.80182,5.80182,0,0,0,3.42773,3.75391A1.50016,1.50016,0,0,1,1382.99609,1206.54981Z" transform="translate(-1302.47993 -1144.46661)"/>
    <path class="cls-1" d="M1362.84668,1157.94238a1.50033,1.50033,0,0,1-1.39649-2.04687,13.13883,13.13883,0,0,1,6.45508-6.66211,1.50025,1.50025,0,0,1,1.2002,2.75,10.21489,10.21489,0,0,0-4.86231,5.00586A1.49973,1.49973,0,0,1,1362.84668,1157.94238Z" transform="translate(-1302.47993 -1144.46661)"/>
    <path class="cls-1" d="M1384.29883,1166.98144q-0.34717,0-.71484-0.0293a1.4998,1.4998,0,0,1-1.376-1.61426,1.51561,1.51561,0,0,1,1.61426-1.376c3.22559,0.26172,4.02051-2.08105,4.05371-2.18066a1.49992,1.49992,0,0,1,2.84766.94336A6.6366,6.6366,0,0,1,1384.29883,1166.98144Z" transform="translate(-1302.47993 -1144.46661)"/>
    <path class="cls-1" d="M1322.19434,1164.24609a1.4989,1.4989,0,0,1-1.38379-.91992,3.73848,3.73848,0,0,0-3.92481-2.19043,1.49985,1.49985,0,0,1-.416-2.9707,6.74149,6.74149,0,0,1,7.10645,4.001,1.4988,1.4988,0,0,1-.80273,1.96289A1.48263,1.48263,0,0,1,1322.19434,1164.24609Z" transform="translate(-1302.47993 -1144.46661)"/>
    <path class="cls-1" d="M1352.123,1152.81641a1.50074,1.50074,0,0,1-1.49707-1.417c-0.04785-.86035-1.48828-2.02637-2.44727-2.543a1.50006,1.50006,0,0,1,1.41309-2.64648c0.39551,0.21094,3.86914,2.1416,4.03027,5.02344a1.50119,1.50119,0,0,1-1.415,1.58105C1352.17871,1152.81543,1352.15039,1152.81641,1352.123,1152.81641Z" transform="translate(-1302.47993 -1144.46661)"/>
    <path class="cls-1" d="M1331.03223,1157.17676a1.49854,1.49854,0,0,1-1.20117-.59961,5.77879,5.77879,0,0,1,.56348-7.46582,1.49977,1.49977,0,0,1,2.18066,2.05957,2.84032,2.84032,0,0,0-.34375,3.60547A1.4999,1.4999,0,0,1,1331.03223,1157.17676Z" transform="translate(-1302.47993 -1144.46661)"/>
    <path class="cls-1" d="M1318.16894,1192.09473a1.49778,1.49778,0,0,1-1.38769-2.05176,6.98332,6.98332,0,0,1,3.77441-3.59277c2.35938-.957,5.21582-0.71289,8.48828.73047a1.49972,1.49972,0,1,1-1.21094,2.74414c-2.47266-1.08984-4.52344-1.33008-6.09863-.71484a4.06272,4.06272,0,0,0-2.17871,1.97266A1.51445,1.51445,0,0,1,1318.16894,1192.09473Z" transform="translate(-1302.47993 -1144.46661)"/>
    <path class="cls-1" d="M1374.65234,1210.28711a1.3878,1.3878,0,0,1-.1416-0.00684c-0.32422-.03027-7.97852-0.7959-10.93066-5.49219a11.13846,11.13846,0,0,0-7.39355-4.64941c-4.05762-.68262-8.52051.80566-12.90625,4.31445a1.5,1.5,0,0,1-1.875-2.3418c6.4082-5.127,11.84668-5.51367,15.28125-4.93066a14.06,14.06,0,0,1,9.43262,6.01074c1.79492,2.85449,6.86914,3.92871,8.67285,4.10254A1.5,1.5,0,0,1,1374.65234,1210.28711Z" transform="translate(-1302.47993 -1144.46661)"/>
    <path class="cls-1" d="M1328.61328,1200.4834a1.4975,1.4975,0,0,1-1.37109-2.09766c0.99707-2.26367,4.67188-6.25684,11.44824-5.1875a1.5,1.5,0,0,1-.4707,2.96289c-6.126-.97266-8.15332,3.26367-8.23633,3.44434A1.50994,1.50994,0,0,1,1328.61328,1200.4834Z" transform="translate(-1302.47993 -1144.46661)"/>
    <g>
      <path class="cls-2" d="M1381.74023,1176.41309a9.71063,9.71063,0,0,1-9.14551-6.0752,1.49994,1.49994,0,0,1,2.80762-1.05664c0.2168,0.55664,2.26758,5.33594,8.64258,3.84961a1.50017,1.50017,0,0,1,.68164,2.92188A13.14938,13.14938,0,0,1,1381.74023,1176.41309Z" transform="translate(-1302.47993 -1144.46661)"/>
      <path class="cls-2" d="M1387.35645,1198.53711a12.93018,12.93018,0,0,1,0-25.86035,1.5,1.5,0,0,1,0,3,9.93018,9.93018,0,0,0,0,19.86035A1.5,1.5,0,0,1,1387.35645,1198.53711Z" transform="translate(-1302.47993 -1144.46661)"/>
      <path class="cls-2" d="M1358.16113,1169.83789a27.92555,27.92555,0,0,1-7.75-1.17187,1.50024,1.50024,0,0,1,.832-2.88281c15.74414,4.5459,21.33106-6.84375,21.55957-7.33105a1.50053,1.50053,0,0,1,2.71289,1.2832A19.535,19.535,0,0,1,1358.16113,1169.83789Z" transform="translate(-1302.47993 -1144.46661)"/>
      <path class="cls-2" d="M1348.97168,1178.97559a11.66309,11.66309,0,0,1,0-23.32617,1.5,1.5,0,0,1,0,3,8.66309,8.66309,0,0,0,0,17.32617A1.5,1.5,0,0,1,1348.97168,1178.97559Z" transform="translate(-1302.47993 -1144.46661)"/>
      <path class="cls-2" d="M1360.54785,1175.61816a1.5007,1.5007,0,0,1-1.4541-1.13574c-1.07324-4.29395,2.48438-7.27734,4.5166-8.25586a1.50009,1.50009,0,0,1,1.30566,2.70117c-0.166.08105-3.65723,1.84473-2.91211,4.82617a1.49986,1.49986,0,0,1-1.09082,1.81934A1.51962,1.51962,0,0,1,1360.54785,1175.61816Z" transform="translate(-1302.47993 -1144.46661)"/>
      <path class="cls-2" d="M1322.04394,1177.50977a20.11568,20.11568,0,0,1-8.96582-2.26855,1.50011,1.50011,0,0,1,1.49609-2.60059c0.41406,0.23535,9.86328,5.47559,16.48144-2.48633a1.49993,1.49993,0,0,1,2.30664,1.918A14.20506,14.20506,0,0,1,1322.04394,1177.50977Z" transform="translate(-1302.47993 -1144.46661)"/>
      <path class="cls-2" d="M1369.56445,1202.18945c-0.02637,0-.05371-0.001-0.08008-0.002a1.50037,1.50037,0,0,1-1.41894-1.57715c0.00293-.06055.25976-6.46973-4.06445-10.40625-3.06348-2.78809-7.74121-3.75977-13.9043-2.876-21.752,3.10547-25.21191-11.50391-25.24414-11.65234a1.49982,1.49982,0,0,1,2.92871-.64844c0.12109,0.52051,3.03027,12.02832,21.8916,9.33008,7.10547-1.01367,12.61426.21289,16.37207,3.65039,5.36719,4.91016,5.0332,12.44238,5.0166,12.76074A1.50071,1.50071,0,0,1,1369.56445,1202.18945Z" transform="translate(-1302.47993 -1144.46661)"/>
      <path class="cls-2" d="M1348.82422,1193.23438a1.49991,1.49991,0,0,1-1.39258-2.05762c0.7207-1.80176-1.57715-3.50781-1.60059-3.52441a1.50021,1.50021,0,1,1,1.74414-2.44141c1.58106,1.12988,3.917,3.8916,2.6416,7.08105A1.5,1.5,0,0,1,1348.82422,1193.23438Z" transform="translate(-1302.47993 -1144.46661)"/>
    </g>
  </g>
</svg>
