<svg id="Layer_1" data-name="Layer 1" xmlns="http://www.w3.org/2000/svg" width="103.36" height="74.71" viewBox="0 0 103.36 74.71">
  <defs>
    <style>
      .cls-1, .cls-2 {
        fill: none;
        stroke-linecap: round;
        stroke-linejoin: round;
        stroke-width: 3px;
      }

      .cls-1 {
        stroke: #fff;
      }

      .cls-2 {
        stroke: #ffc933;
      }
    </style>
  </defs>
  <title>brain</title>
  <g>
    <path class="cls-1" d="M1234.85,1177.89A22.81,22.81,0,0,0,1204,1151.2a15.64,15.64,0,0,0-18.5-3.67,119,119,0,0,1-20.27,2.79,20.81,20.81,0,0,0-10.44,40.28,21.92,21.92,0,0,0,25.58,12.34c1.25,2.68,3.9,5.66,9.54,7.17,0,0,8.78,2.66,8.55,7.23,0,0,9.3,2.93,12.81-8.56a15.57,15.57,0,0,0,7.41-4.29A15.66,15.66,0,0,0,1234.85,1177.89Z" transform="translate(-1139.1 -1144.47)"/>
    <path class="cls-1" d="M1234.85,1177.89s-1,7.72-10.29,7" transform="translate(-1139.1 -1144.47)"/>
    <path class="cls-1" d="M1219.61,1205a7.25,7.25,0,0,1-4.42-4.77" transform="translate(-1139.1 -1144.47)"/>
    <path class="cls-1" d="M1205.12,1150.61a11.65,11.65,0,0,0-5.66,5.83" transform="translate(-1139.1 -1144.47)"/>
    <path class="cls-1" d="M1225.91,1162.25a5.19,5.19,0,0,1-5.6,3.2" transform="translate(-1139.1 -1144.47)"/>
    <path class="cls-1" d="M1153.29,1159.65s4-.56,5.52,3.1" transform="translate(-1139.1 -1144.47)"/>
    <path class="cls-1" d="M1185.5,1147.53s3.12,1.66,3.24,3.78" transform="translate(-1139.1 -1144.47)"/>
    <path class="cls-1" d="M1168.09,1150.14s-2.57,2.7-.45,5.53" transform="translate(-1139.1 -1144.47)"/>
    <path class="cls-1" d="M1154.78,1190.6s2.25-5.59,10.27-2.05" transform="translate(-1139.1 -1144.47)"/>
    <path class="cls-1" d="M1211.26,1208.79s-7.21-.67-9.8-4.8-11.31-9.66-22.51-.71" transform="translate(-1139.1 -1144.47)"/>
    <path class="cls-1" d="M1165.23,1199s2.42-5.49,9.84-4.31" transform="translate(-1139.1 -1144.47)"/>
    <g>
      <path class="cls-2" d="M1210.61,1169.81s2.47,6.62,10.39,4.78" transform="translate(-1139.1 -1144.47)"/>
      <path class="cls-2" d="M1224,1197a11.43,11.43,0,1,1,0-22.86" transform="translate(-1139.1 -1144.47)"/>
      <path class="cls-2" d="M1210.77,1159.09s-6.19,13.08-23.33,8.13" transform="translate(-1139.1 -1144.47)"/>
      <path class="cls-2" d="M1185.58,1177.48a10.16,10.16,0,0,1,0-20.33" transform="translate(-1139.1 -1144.47)"/>
      <path class="cls-2" d="M1200.87,1167.58s-4.77,2.3-3.71,6.54" transform="translate(-1139.1 -1144.47)"/>
      <path class="cls-2" d="M1150.44,1173.94s10.84,6.25,18.38-2.83" transform="translate(-1139.1 -1144.47)"/>
      <path class="cls-2" d="M1162.93,1175.35s2.95,13.43,23.57,10.49,19.68,14.85,19.68,14.85" transform="translate(-1139.1 -1144.47)"/>
      <path class="cls-2" d="M1183.32,1186.43s3.3,2.36,2.12,5.3" transform="translate(-1139.1 -1144.47)"/>
    </g>
  </g>
</svg>
