<?xml version="1.0" encoding="utf-8"?>
<!-- Generator: Adobe Illustrator 19.2.0, SVG Export Plug-In . SVG Version: 6.00 Build 0)  -->
<svg version="1.1" id="Layer_1" xmlns="http://www.w3.org/2000/svg" xmlns:xlink="http://www.w3.org/1999/xlink" x="0px" y="0px"
	 viewBox="0 0 36 36" style="enable-background:new 0 0 36 36;" xml:space="preserve">
<style type="text/css">
	.st0{fill:none;stroke:#FFC933;stroke-width:2;stroke-linecap:round;stroke-linejoin:round;}
</style>
<title>aeroplane</title>
<path class="st0" d="M16.7,16.3L28.4,19v-2.8L16.7,9.6V5.7c0-1.1-1.3-3.9-2-4c-0.7,0.2-2,2.9-2,4v3.9L1,16.2V19l11.7-2.7V23
	c0,0.1,0,0.1,0,0.2l-4,1.7v3l4.8-0.9c0,0.7,0.6,1.3,1.3,1.2c0.7,0,1.2-0.6,1.2-1.2l4.7,1v-3l-4-1.7c0-0.1,0-0.1,0-0.2V16.3z"/>
</svg>
