<svg id="Layer_1" data-name="Layer 1" xmlns="http://www.w3.org/2000/svg" width="30.76" height="25" viewBox="0 0 30.76 25">
  <defs>
    <style>
      .cls-1 {
        fill: #fff;
      }
    </style>
  </defs>
  <title>twitter</title>
  <path class="cls-1" d="M453.76,1022a12.62,12.62,0,0,1-3.62,1,6.33,6.33,0,0,0,2.78-3.49,12.64,12.64,0,0,1-4,1.53,6.32,6.32,0,0,0-10.75,5.76,17.92,17.92,0,0,1-13-6.59,6.32,6.32,0,0,0,2,8.43,6.29,6.29,0,0,1-2.86-.79s0,0.05,0,.08a6.32,6.32,0,0,0,5.06,6.19,6.33,6.33,0,0,1-2.85.11,6.32,6.32,0,0,0,5.9,4.38,12.66,12.66,0,0,1-7.84,2.7,12.84,12.84,0,0,1-1.51-.09,17.86,17.86,0,0,0,9.67,2.84c11.61,0,18-9.62,18-18q0-.41,0-0.82a12.83,12.83,0,0,0,3.15-3.27h0Z" transform="translate(-423 -1019)"/>
</svg>
