<?xml version="1.0" encoding="utf-8"?>
<!-- Generator: Adobe Illustrator 19.2.0, SVG Export Plug-In . SVG Version: 6.00 Build 0)  -->
<svg version="1.1" id="Layer_1" xmlns="http://www.w3.org/2000/svg" xmlns:xlink="http://www.w3.org/1999/xlink" x="0px" y="0px"
	 viewBox="0 0 36 36" style="enable-background:new 0 0 36 36;" xml:space="preserve">
<style type="text/css">
	.st0{fill:none;stroke:#FFC933;stroke-width:2;stroke-linecap:round;stroke-linejoin:round;}
</style>
<title>vip</title>
<g>
	<line class="st0" x1="10.7" y1="10" x2="10.7" y2="17.7"/>
	<circle class="st0" cx="10.5" cy="8" r="2"/>
	<path class="st0" d="M10.5,10c4.7,2.2,10.1,2.2,14.7,0"/>
	<path class="st0" d="M8.8,18h3.6c0.6,0,1,0.5,1,1l0,0c0,0.6-0.5,1-1,1H8.8c-0.6,0-1-0.5-1-1l0,0C7.8,18.5,8.3,18,8.8,18z"/>
	<line class="st0" x1="25.4" y1="10" x2="25.4" y2="17.7"/>
	<circle class="st0" cx="25.3" cy="8" r="2"/>
	<path class="st0" d="M23.6,18h3.6c0.6,0,1,0.5,1,1l0,0c0,0.6-0.5,1-1,1h-3.6c-0.6,0-1-0.5-1-1l0,0C22.5,18.5,23,18,23.6,18z"/>
</g>
</svg>
