<?xml version="1.0" encoding="utf-8"?>
<!-- Generator: Adobe Illustrator 19.2.0, SVG Export Plug-In . SVG Version: 6.00 Build 0)  -->
<svg version="1.1" id="Layer_1" xmlns="http://www.w3.org/2000/svg" xmlns:xlink="http://www.w3.org/1999/xlink" x="0px" y="0px"
	 viewBox="0 0 36 36" style="enable-background:new 0 0 36 36;" xml:space="preserve">
<style type="text/css">
	.st0{fill:#FFC933;}
</style>
<title>wrench</title>
<path class="st0" d="M22.1,8.3c0.7,0,1.4,0.1,2,0.3l0.5,0.2c0,0,0,0,0,0c0,0,0,0,0,0l-3.9,3.9l0,0l0.4,2c0,0,0,0,0,0l2.1,0.4l0,0
	l0,0l3.8-3.8l0,0c0,0,0,0,0,0l0.2,0.5c0.5,1.3,0.5,2.8-0.1,4.1c-1.2,2.8-4.3,4.1-7.1,3.1l0,0l0,0L12.3,27c-0.5,0.5-1.1,0.7-1.7,0.7
	c-0.5,0-1.1-0.2-1.5-0.6c-1-0.8-1-2.3-0.2-3.3c0,0,0.1-0.1,0.1-0.1l8-8l0,0c-1.1-2.8,0.3-6,3.1-7.1C20.7,8.4,21.4,8.3,22.1,8.3
	 M10.6,26.3c0.3,0,0.6-0.2,0.8-0.5c0.2-0.3,0.2-0.6,0-0.9c-0.3-0.4-0.8-0.6-1.3-0.4C10,24.7,9.9,24.8,9.8,25c-0.2,0.3-0.2,0.6,0,0.9
	C9.9,26.2,10.3,26.3,10.6,26.3 M22.1,6.3c-1,0-2,0.2-2.9,0.6c-3.3,1.4-5.2,4.9-4.5,8.4l-7.2,7.2c-1.7,1.7-1.7,4.4,0,6.1
	c0.1,0.1,0.1,0.1,0.2,0.2c0.8,0.7,1.8,1.1,2.8,1.1c1.2,0,2.3-0.5,3.1-1.3l7.1-7.1c3.5,0.6,7-1.2,8.4-4.5c0.7-1.8,0.8-3.8,0.1-5.6
	l-0.2-0.5c-0.9,0.4-2-0.1-2.4-1c-0.2-0.4-0.2-0.9,0-1.3c-0.2-0.7-0.6-1.2-1.3-1.4l-0.5-0.2C23.9,6.4,23,6.3,22.1,6.3L22.1,6.3
	L22.1,6.3z"/>
</svg>
