<?xml version="1.0" encoding="utf-8"?>
<!-- Generator: Adobe Illustrator 18.0.0, SVG Export Plug-In . SVG Version: 6.00 Build 0)  -->
<!DOCTYPE svg PUBLIC "-//W3C//DTD SVG 1.1//EN" "http://www.w3.org/Graphics/SVG/1.1/DTD/svg11.dtd">
<svg version="1.1" xmlns="http://www.w3.org/2000/svg" xmlns:xlink="http://www.w3.org/1999/xlink" x="0px" y="0px"
	 viewBox="0 0 206.5 206.5" enable-background="new 0 0 206.5 206.5" xml:space="preserve">
<g id="Layer_1">
	<rect x="-470.5" y="-213" fill="#EDECEC" width="1938" height="566"/>
	<g>
		<g>
			<defs>
				<rect id="SVGID_1_" x="-464.5" y="-736.5" width="1920" height="539"/>
			</defs>
			<clipPath id="SVGID_2_">
				<use xlink:href="#SVGID_1_"  overflow="visible"/>
			</clipPath>
			<g clip-path="url(#SVGID_2_)">
				
					<image overflow="visible" width="1920" height="1080" xlink:href="work/college/banner.jpg"  transform="matrix(1 0 0 1 -464.5 -854.9941)">
				</image>
			</g>
		</g>
	</g>
	<circle fill="#DBDBDB" cx="103.5" cy="103.3" r="102.7"/>
	<path fill="#503F72" d="M121.5,65.5H84.3c-6.3,0-11.5-5.2-11.5-11.5v0c0-6.3,5.2-11.5,11.5-11.5h37.2c6.3,0,11.5,5.2,11.5,11.5v0
		C133,60.3,127.9,65.5,121.5,65.5z"/>
	<polygon fill="#503F72" points="102.9,69.2 97.8,59.8 92.7,50.5 102.9,50.5 113.1,50.5 108,59.8 	"/>
	<g>
		<path fill="#DBDBDB" d="M85.8,56.3v-5.1h1.1v5.1H85.8z"/>
		<path fill="#DBDBDB" d="M90.5,53.3L90.1,53c0.2-0.1,0.5-0.5,0.6-0.7c0,0-0.1,0-0.1,0c-0.3,0-0.5-0.2-0.5-0.6
			c0-0.3,0.3-0.6,0.6-0.6c0.4,0,0.7,0.3,0.7,0.8C91.3,52.5,91,53,90.5,53.3z"/>
		<path fill="#DBDBDB" d="M98.9,56.3v-3.7l-1.4,3.7H97l-1.4-3.7v3.7h-1.1v-5.1H96l1.2,3.2l1.2-3.2h1.5v5.1H98.9z"/>
		<path fill="#DBDBDB" d="M107.6,56.3v-5.1h2.4c1.1,0,1.7,0.8,1.7,1.7c0,0.9-0.6,1.6-1.7,1.6h-1.3v1.8H107.6z M110.6,52.8
			c0-0.4-0.3-0.7-0.8-0.7h-1.2v1.4h1.2C110.3,53.5,110.6,53.2,110.6,52.8z"/>
		<path fill="#DBDBDB" d="M113.4,55.9l0.5-0.8c0.2,0.2,0.5,0.4,0.8,0.4c0.5,0,0.8-0.3,0.8-0.8v-3.4h1.1v3.4c0,1.2-0.8,1.8-1.8,1.8
			C114.2,56.4,113.7,56.2,113.4,55.9z"/>
		<path fill="#DBDBDB" d="M119.7,55.8c0-0.3,0.3-0.6,0.6-0.6c0.3,0,0.6,0.3,0.6,0.6c0,0.3-0.3,0.6-0.6,0.6
			C120,56.4,119.7,56.1,119.7,55.8z M119.9,54.6l-0.2-3.5h1.2l-0.2,3.5H119.9z"/>
	</g>
	<g>
		<g>
			<circle fill="none" stroke="#503F72" stroke-width="5.3132" stroke-miterlimit="10" cx="103.3" cy="120.2" r="41.4"/>
		</g>
		<circle fill="#503F72" cx="81.4" cy="110.3" r="5.2"/>
		<circle fill="#503F72" cx="124.9" cy="110.3" r="5.2"/>
		<ellipse opacity="0.41" fill="#503F72" cx="76.2" cy="121.4" rx="8" ry="3.5"/>
		<ellipse opacity="0.41" fill="#503F72" cx="131.1" cy="121.4" rx="8" ry="3.5"/>
		<path fill="none" stroke="#503F72" stroke-width="2" stroke-miterlimit="10" d="M91.4,120.5C91.4,120.5,91.4,120.4,91.4,120.5
			c0,6.5,5.3,11.6,11.8,11.6c6.5,0,11.8-5,11.8-11.5c0-0.1,0-0.1,0-0.1H91.4z"/>
		<g>
			<path fill="none" stroke="#503F72" stroke-miterlimit="10" d="M73.2,107c-0.3,2-0.5,2.1-0.5,3.1c0,4.8,3.9,8.8,8.7,8.8
				c4.8,0,8.7-4.1,8.7-8.9c0-1-0.2-1-0.5-3H73.2z"/>
			<path fill="none" stroke="#503F72" stroke-miterlimit="10" d="M116.7,107c-0.3,2-0.5,2.1-0.5,3.1c0,4.8,3.9,8.8,8.7,8.8
				c4.8,0,8.7-4.1,8.7-8.9c0-1-0.2-1-0.5-3H116.7z"/>
		</g>
		<g>
			<path fill="none" stroke="#503F72" stroke-width="1.9428" stroke-linecap="round" stroke-miterlimit="10" d="M130.6,104.2
				c-1.5-1.3-3.5-2.2-5.7-2.2c-2.2,0-4.2,0.8-5.7,2.2"/>
			<path fill="none" stroke="#503F72" stroke-width="1.9428" stroke-linecap="round" stroke-miterlimit="10" d="M87,104.1
				c-1.5-1.3-3.5-2.1-5.6-2.1c-2.2,0-4.2,0.8-5.7,2.1"/>
		</g>
		<path fill="none" stroke="#503F72" stroke-width="0.9066" stroke-miterlimit="10" d="M90,111.8c3.8-1.7,8.4-2.6,13.4-2.6
			c4.9,0,9.4,0.9,13.1,2.5"/>
		<line fill="none" stroke="#503F72" stroke-width="0.9066" stroke-miterlimit="10" x1="72.6" y1="109.6" x2="66.3" y2="105"/>
		<line fill="none" stroke="#503F72" stroke-width="0.9066" stroke-miterlimit="10" x1="133.6" y1="109.7" x2="139.9" y2="105.1"/>
		<path fill="none" stroke="#503F72" stroke-width="1.0766" stroke-miterlimit="10" d="M111.6,128.4c0,0-8.4-3.5-16.8,0"/>
		<line fill="#503F72" x1="114.5" y1="123.5" x2="92.5" y2="123.5"/>
		<polygon fill="#503F72" points="114.6,123.3 91.7,123.5 95.2,128.3 100.4,127.1 106.7,127 112.3,128.3 		"/>
	</g>
</g>
<g id="Layer_2">
</g>
</svg>
