<?xml version="1.0" encoding="utf-8"?>
<!-- Generator: Adobe Illustrator 18.0.0, SVG Export Plug-In . SVG Version: 6.00 Build 0)  -->
<!DOCTYPE svg PUBLIC "-//W3C//DTD SVG 1.1//EN" "http://www.w3.org/Graphics/SVG/1.1/DTD/svg11.dtd">
<svg version="1.1" xmlns="http://www.w3.org/2000/svg" xmlns:xlink="http://www.w3.org/1999/xlink" x="0px" y="0px"
	 viewBox="0 0 283.5 328.5" enable-background="new 0 0 283.5 328.5" xml:space="preserve">
<g id="Layer_1">
</g>
<g id="Layer_2">
	<g>
		<path fill="#DBDBDB" stroke="#503F72" stroke-width="2" stroke-miterlimit="10" d="M251.7,278.6c0-6,5.8-10.8,10.8-11v-14.8
			c-5-0.1-10.8-5-10.8-11s5.8-10.8,10.8-11v-14.8c-5-0.1-10.8-5-10.8-11c0-6,5.8-10.8,10.8-11v-14.8c-5-0.1-10.8-5-10.8-11
			c0-6,5.8-10.8,10.8-11v-14.8c-5-0.1-10.8-5-10.8-11c0-6,5.8-10.8,10.8-11v-14.8c-5-0.1-10.8-5-10.8-11c0-6,5.8-10.8,10.8-11V69.1
			c-5-0.1-10.8-5-10.8-11s5.8-10.8,10.8-11V28.4h-15.8c0,0,0,0.8,0,0.8c0,6.1-4.9,11.3-11,11.3c-6.1,0-11-5.4-11-11.4
			c0-0.1,0-0.7,0-0.7h-14.8c0,0,0,0.8,0,0.8c0,6.1-4.9,11.3-11,11.3c-6.1,0-11-5.4-11-11.4c0-0.1,0-0.7,0-0.7h-15.5c0,0,0,0.8,0,0.8
			c0,6.1-4.9,11.3-11,11.3c-6.1,0-11-5.4-11-11.4c0-0.1,0-0.7,0-0.7h-15.2c0,0,0,0.8,0,0.8c0,6.1-4.9,11.3-11,11.3
			c-6.1,0-11-5.4-11-11.4c0-0.1,0-0.7,0-0.7H97.8c0,0,0,0.8,0,0.8c0,6.1-4.9,11.3-11,11.3c-6.1,0-11-5.4-11-11.4c0-0.1,0-0.7,0-0.7
			H61.1c0,0,0,0.8,0,0.8c0,6.1-4.9,11.3-11,11.3s-11-5.4-11-11.4c0-0.1,0-0.7,0-0.7H21.5v18.7c7,0.1,10.8,5,10.8,11
			s-3.8,10.8-10.8,11v14.8c7,0.1,10.8,5,10.8,11c0,6-3.8,10.8-10.8,11v14.8c7,0.1,10.8,5,10.8,11c0,6-3.8,10.8-10.8,11v14.8
			c7,0.1,10.8,5,10.8,11c0,6-3.8,10.8-10.8,11v14.8c7,0.1,10.8,5,10.8,11c0,6-3.8,10.8-10.8,11v14.8c7,0.1,10.8,5,10.8,11
			s-3.8,10.8-10.8,11v14.8c7,0.1,10.8,5,10.8,11s-3.8,10.8-10.8,11v15.8h17.7c0,0,0-0.7,0-0.9c0-6.1,4.9-11.2,11-11.2
			s11,5.2,11,11.3c0,0.2,0,0.8,0,0.8h14.8c0,0,0-0.7,0-0.9c0-6.1,4.9-11.2,11-11.2c6.1,0,11,5.2,11,11.3c0,0.2,0,0.8,0,0.8h15.6
			c0,0,0-0.7,0-0.9c0-6.1,4.9-11.2,11-11.2c6.1,0,11,5.2,11,11.3c0,0.2,0,0.8,0,0.8h15.2c0,0,0-0.7,0-0.9c0-6.1,4.9-11.2,11-11.2
			c6.1,0,11,5.2,11,11.3c0,0.2,0,0.8,0,0.8h15.6c0,0,0-0.7,0-0.9c0-6.1,4.9-11.2,11-11.2c6.1,0,11,5.2,11,11.3c0,0.2,0,0.8,0,0.8
			h14.8c0,0,0-0.7,0-0.9c0-6.1,4.9-11.2,11-11.2c6.1,0,11,5.2,11,11.3c0,0.2,0,0.8,0,0.8h15.9v-15.8
			C257.5,289.5,251.7,284.6,251.7,278.6z"/>
		<path opacity="0.19" fill="#503F72" d="M233.5,108.5c0,0-0.8,0-1.1,0c-11.9,0-22.2,7.3-26.5,17.7c-4.8-3.8-11-6.1-17.6-6.1
			c-13.9,0-25.5,10-28,23.2c-3-1.1-6.3-1.7-9.7-1.7c-4.7,0-9.1,1.1-12.9,3.1c-5.1-4.7-11.9-7.6-19.3-7.6c-3.3,0-6.5,0.6-9.4,1.6
			c-3.5-11.8-14.4-20.4-27.3-20.4c-15.7,0-28.5,12.7-28.5,28.5s12.7,28.5,28.5,28.5c3.3,0,6.5-0.6,9.4-1.6
			c3.5,11.8,14.4,20.4,27.3,20.4c4.7,0,9-1.1,12.9-3.1c1.3,1.2,2.7,2.3,4.2,3.2c5.2,6,12.9,9.8,21.4,9.8c15.2,0,27.7-12,28.4-27
			c1,0.1,2,0.2,2.9,0.2c11.9,0,22.1-7.3,26.4-17.7c4.8,3.8,11.2,6.1,17.8,6.1c0.3,0,1.1,0,1.1,0V108.5z"/>
		<rect x="52.1" y="110" fill="#DBDBDB" width="48.1" height="124.9"/>
		<rect x="100.3" y="163.3" fill="#DBDBDB" width="66.5" height="71.6"/>
		<rect x="167.1" y="130.6" fill="#DBDBDB" width="63.8" height="104.3"/>
		<circle opacity="0.29" fill="#503F72" cx="119.3" cy="88.6" r="17.3"/>
		<line fill="none" stroke="#503F72" stroke-width="2" stroke-miterlimit="10" x1="233.5" y1="234.4" x2="52.5" y2="234.4"/>
		<polyline fill="none" stroke="#503F72" stroke-width="2" stroke-miterlimit="10" points="50.5,110.4 101.5,110.4 101.5,208.4 		
			"/>
		<polyline fill="none" stroke="#503F72" stroke-width="2" stroke-miterlimit="10" points="96.5,109.4 96.5,103.4 52.5,103.4 		"/>
		<line fill="none" stroke="#503F72" stroke-width="2" stroke-miterlimit="10" x1="80.5" y1="104.4" x2="80.5" y2="109.4"/>
		<line fill="none" stroke="#503F72" stroke-width="2" stroke-miterlimit="10" x1="65.5" y1="104.4" x2="65.5" y2="110.4"/>
		<polyline fill="none" stroke="#503F72" stroke-width="2" stroke-miterlimit="10" points="76.5,109.4 76.5,80.4 52.5,80.4 		"/>
		<rect x="77" y="116.8" fill="none" stroke="#503F72" stroke-width="1.7928" stroke-miterlimit="10" width="16.4" height="21.5"/>
		
			<rect x="54.1" y="116.8" fill="none" stroke="#503F72" stroke-width="1.7928" stroke-miterlimit="10" width="16.4" height="21.5"/>
		<rect x="77" y="144.6" fill="none" stroke="#503F72" stroke-width="1.7928" stroke-miterlimit="10" width="16.4" height="21.5"/>
		
			<rect x="54.1" y="144.6" fill="none" stroke="#503F72" stroke-width="1.7928" stroke-miterlimit="10" width="16.4" height="21.5"/>
		<rect x="77" y="173.1" fill="none" stroke="#503F72" stroke-width="1.7928" stroke-miterlimit="10" width="16.4" height="21.5"/>
		
			<rect x="172.5" y="136.8" fill="none" stroke="#503F72" stroke-width="1.7928" stroke-miterlimit="10" width="16.4" height="21.5"/>
		
			<rect x="195.3" y="136.8" fill="none" stroke="#503F72" stroke-width="1.7928" stroke-miterlimit="10" width="16.4" height="21.5"/>
		
			<rect x="218.2" y="136.8" fill="none" stroke="#503F72" stroke-width="1.7928" stroke-miterlimit="10" width="16.4" height="21.5"/>
		
			<rect x="172.5" y="164.1" fill="none" stroke="#503F72" stroke-width="1.7928" stroke-miterlimit="10" width="16.4" height="21.5"/>
		
			<rect x="195.3" y="164.1" fill="none" stroke="#503F72" stroke-width="1.7928" stroke-miterlimit="10" width="16.4" height="21.5"/>
		
			<rect x="218.2" y="164.1" fill="none" stroke="#503F72" stroke-width="1.7928" stroke-miterlimit="10" width="16.4" height="21.5"/>
		
			<rect x="172.5" y="191.9" fill="none" stroke="#503F72" stroke-width="1.7928" stroke-miterlimit="10" width="16.4" height="21.5"/>
		<polyline fill="none" stroke="#503F72" stroke-width="1.7928" stroke-miterlimit="10" points="188.8,234.7 188.8,225 172.5,225 
			172.5,234.7 		"/>
		
			<rect x="54.1" y="173.1" fill="none" stroke="#503F72" stroke-width="1.7928" stroke-miterlimit="10" width="16.4" height="21.5"/>
		<line fill="none" stroke="#503F72" stroke-width="2" stroke-miterlimit="10" x1="93.5" y1="132.4" x2="77.5" y2="132.4"/>
		<rect x="53.2" y="234.7" opacity="0.5" fill="#503F72" width="178.2" height="19.3"/>
		<rect x="53.2" y="252.6" opacity="0.29" fill="#503F72" width="178.2" height="8.3"/>
		<rect x="53.2" y="259.1" opacity="0.19" fill="#503F72" width="178.2" height="11.7"/>
		<line fill="none" stroke="#503F72" stroke-width="2" stroke-miterlimit="10" x1="70.5" y1="121.4" x2="52.5" y2="121.4"/>
		<line fill="none" stroke="#503F72" stroke-width="2" stroke-miterlimit="10" x1="70.5" y1="159.4" x2="54.5" y2="159.4"/>
		<line fill="none" stroke="#503F72" stroke-width="2" stroke-miterlimit="10" x1="70.5" y1="189.4" x2="54.5" y2="189.4"/>
		<line fill="none" stroke="#503F72" stroke-width="2" stroke-miterlimit="10" x1="77.5" y1="189.4" x2="93.5" y2="189.4"/>
		<line fill="none" stroke="#503F72" stroke-width="2" stroke-miterlimit="10" x1="77.5" y1="155.4" x2="93.5" y2="155.4"/>
		<rect x="77.1" y="145" opacity="0.5" fill="#503F72" width="15.5" height="9.6"/>
		<rect x="77.1" y="172.6" opacity="0.5" fill="#503F72" width="15.5" height="16.4"/>
		<rect x="55" y="172.6" opacity="0.5" fill="#503F72" width="15.5" height="16.4"/>
		<rect x="54.1" y="116.9" opacity="0.5" fill="#503F72" width="15.5" height="4.2"/>
		<rect x="54.2" y="145" opacity="0.5" fill="#503F72" width="15.5" height="15.4"/>
		<rect x="77.5" y="116.9" opacity="0.5" fill="#503F72" width="15.5" height="15.4"/>
		<rect x="53.8" y="80.9" opacity="0.5" fill="#503F72" width="21.6" height="9.3"/>
		<rect x="54.4" y="100.9" opacity="0.5" fill="#503F72" width="21.6" height="9.1"/>
		<line fill="none" stroke="#503F72" stroke-width="2" stroke-miterlimit="10" x1="60.5" y1="79.4" x2="60.5" y2="74.4"/>
		<line fill="none" stroke="#503F72" stroke-width="2" stroke-miterlimit="10" x1="67.5" y1="79.4" x2="67.5" y2="65.4"/>
		
			<rect x="84.2" y="215.4" fill="none" stroke="#503F72" stroke-width="1.7928" stroke-miterlimit="10" width="17.9" height="18.8"/>
		<rect x="81.5" y="209.6" fill="none" stroke="#503F72" stroke-width="1.7928" stroke-miterlimit="10" width="23.3" height="5.8"/>
		<rect x="89.8" y="205.4" fill="none" stroke="#503F72" stroke-width="1.7928" stroke-miterlimit="10" width="6.5" height="4"/>
		
			<rect x="51.6" y="200.5" fill="none" stroke="#503F72" stroke-width="1.7928" stroke-miterlimit="10" width="18.8" height="34.4"/>
		<rect x="86.9" y="219.9" opacity="0.5" fill="#503F72" width="2.9" height="11.7"/>
		<rect x="96.4" y="219.9" opacity="0.5" fill="#503F72" width="2.9" height="11.7"/>
		<rect x="91.6" y="219.9" opacity="0.5" fill="#503F72" width="2.9" height="11.7"/>
		<rect x="84.3" y="216.3" opacity="0.5" fill="#503F72" width="17.4" height="1.8"/>
		<line fill="none" stroke="#503F72" stroke-width="2" stroke-miterlimit="10" x1="100.5" y1="162.4" x2="168.5" y2="162.4"/>
		<line fill="none" stroke="#503F72" stroke-width="2" stroke-miterlimit="10" x1="167.5" y1="233.4" x2="167.5" y2="129.4"/>
		<circle opacity="0.5" fill="#503F72" cx="119.3" cy="88.6" r="12.6"/>
		<line fill="none" stroke="#503F72" stroke-width="2" stroke-miterlimit="10" x1="168.5" y1="130.4" x2="231.5" y2="130.4"/>
		<rect x="183" y="97.9" fill="#DBDBDB" stroke="#503F72" stroke-width="1.7928" stroke-miterlimit="10" width="48" height="32"/>
		<line fill="#DBDBDB" stroke="#503F72" stroke-width="2" stroke-miterlimit="10" x1="168.5" y1="157.4" x2="100.5" y2="157.4"/>
		<polyline fill="none" stroke="#503F72" stroke-width="2" stroke-miterlimit="10" points="233.5,123.4 173.5,123.4 173.5,129.4 		
			"/>
		<line fill="#DBDBDB" stroke="#503F72" stroke-width="2" stroke-miterlimit="10" x1="114.5" y1="156.4" x2="114.5" y2="161.4"/>
		<line fill="none" stroke="#503F72" stroke-width="2" stroke-miterlimit="10" x1="133.5" y1="156.4" x2="133.5" y2="161.4"/>
		<line fill="none" stroke="#503F72" stroke-width="2" stroke-miterlimit="10" x1="148.5" y1="158.4" x2="148.5" y2="161.4"/>
		<line fill="#DBDBDB" stroke="#503F72" stroke-width="2" stroke-miterlimit="10" x1="187.5" y1="124.4" x2="187.5" y2="129.4"/>
		<line fill="none" stroke="#503F72" stroke-width="2" stroke-miterlimit="10" x1="205.5" y1="124.4" x2="205.5" y2="129.4"/>
		<line fill="none" stroke="#503F72" stroke-width="2" stroke-miterlimit="10" x1="221.5" y1="124.4" x2="221.5" y2="129.4"/>
		<line fill="none" stroke="#503F72" stroke-width="2" stroke-miterlimit="10" x1="182.5" y1="129.4" x2="182.5" y2="95.4"/>
		<line fill="none" stroke="#503F72" stroke-width="2" stroke-miterlimit="10" x1="181.5" y1="96.4" x2="231.5" y2="96.4"/>
		<polyline fill="none" stroke="#503F72" stroke-width="1.7928" stroke-miterlimit="10" points="197,129.9 197,106.1 215.3,106.1 
			215.3,129.9 		"/>
		<circle fill="#503F72" cx="210.9" cy="119.1" r="1.3"/>
		<rect x="195.4" y="108.3" fill="#503F72" width="1.3" height="5.9"/>
		<rect x="195.4" y="122" fill="#503F72" width="1.3" height="5.9"/>
		<rect x="105.7" y="168.1" opacity="0.5" fill="#503F72" width="56" height="24.7"/>
		<polyline fill="none" stroke="#503F72" stroke-width="1.7928" stroke-miterlimit="10" points="106.6,234.6 106.6,196.4 
			160.9,196.4 160.9,234.6 		"/>
		<line fill="none" stroke="#503F72" stroke-width="2" stroke-miterlimit="10" x1="106.5" y1="200.4" x2="161.5" y2="200.4"/>
		<line fill="none" stroke="#503F72" stroke-width="2" stroke-miterlimit="10" x1="106.5" y1="205.4" x2="161.5" y2="205.4"/>
		<line fill="none" stroke="#503F72" stroke-width="2" stroke-miterlimit="10" x1="106.5" y1="209.4" x2="161.5" y2="209.4"/>
		<line fill="none" stroke="#503F72" stroke-width="2" stroke-miterlimit="10" x1="106.5" y1="214.4" x2="161.5" y2="214.4"/>
		<line fill="none" stroke="#503F72" stroke-width="2" stroke-miterlimit="10" x1="106.5" y1="218.4" x2="161.5" y2="218.4"/>
		<line fill="none" stroke="#503F72" stroke-width="2" stroke-miterlimit="10" x1="106.5" y1="223.4" x2="161.5" y2="223.4"/>
		<line fill="none" stroke="#503F72" stroke-width="2" stroke-miterlimit="10" x1="106.5" y1="227.4" x2="161.5" y2="227.4"/>
		<line fill="none" stroke="#503F72" stroke-width="2" stroke-miterlimit="10" x1="131.5" y1="230.4" x2="136.5" y2="230.4"/>
		<line fill="none" stroke="#503F72" stroke-width="2" stroke-miterlimit="10" x1="188.5" y1="146.4" x2="172.5" y2="146.4"/>
		<line fill="none" stroke="#503F72" stroke-width="2" stroke-miterlimit="10" x1="211.5" y1="153.4" x2="195.5" y2="153.4"/>
		<line fill="none" stroke="#503F72" stroke-width="2" stroke-miterlimit="10" x1="218.5" y1="180.4" x2="231.5" y2="180.4"/>
		<line fill="none" stroke="#503F72" stroke-width="2" stroke-miterlimit="10" x1="218.5" y1="141.4" x2="233.5" y2="141.4"/>
		<line fill="none" stroke="#503F72" stroke-width="2" stroke-miterlimit="10" x1="211.5" y1="173.4" x2="195.5" y2="173.4"/>
		<line fill="none" stroke="#503F72" stroke-width="2" stroke-miterlimit="10" x1="188.5" y1="180.4" x2="172.5" y2="180.4"/>
		<line fill="none" stroke="#503F72" stroke-width="2" stroke-miterlimit="10" x1="189.5" y1="205.4" x2="172.5" y2="205.4"/>
		<rect x="172.6" y="164.1" opacity="0.5" fill="#503F72" width="15.9" height="15.9"/>
		<rect x="195.7" y="164.1" opacity="0.5" fill="#503F72" width="15.9" height="9.4"/>
		<rect x="172.7" y="137" opacity="0.5" fill="#503F72" width="15.9" height="9.4"/>
		<rect x="195.3" y="136.6" opacity="0.5" fill="#503F72" width="15.9" height="17"/>
		<rect x="172.7" y="191.7" opacity="0.5" fill="#503F72" width="15.9" height="13.9"/>
		<rect x="218.1" y="164" opacity="0.5" fill="#503F72" width="14.3" height="15.9"/>
		<rect x="218.4" y="137" opacity="0.5" fill="#503F72" width="14.3" height="3.8"/>
		
			<rect x="195.3" y="229.9" fill="none" stroke="#503F72" stroke-width="1.7928" stroke-miterlimit="10" width="36.9" height="4.3"/>
		
			<rect x="199.4" y="225.6" fill="none" stroke="#503F72" stroke-width="1.7928" stroke-miterlimit="10" width="29.1" height="4.3"/>
		
			<rect x="203.9" y="221.2" fill="none" stroke="#503F72" stroke-width="1.7928" stroke-miterlimit="10" width="21.2" height="4.3"/>
		<polyline fill="none" stroke="#503F72" stroke-width="1.7928" stroke-miterlimit="10" points="223.2,221.2 223.2,191.5 
			205.7,191.5 205.7,221.2 		"/>
		<rect x="194.3" y="198" fill="none" stroke="#503F72" stroke-width="0.8964" stroke-miterlimit="10" width="6.1" height="11"/>
		<rect x="194.5" y="198" opacity="0.5" fill="#503F72" width="5.7" height="8"/>
		<rect x="172.2" y="224.9" opacity="0.5" fill="#503F72" width="16.4" height="5.5"/>
		<g>
			<path fill="#503F72" d="M212.5,195.2v10.4h-3.4v-10.4H212.5 M213.4,194.3h-5.2v12.2h5.2V194.3L213.4,194.3z"/>
		</g>
		<g>
			<path fill="#503F72" d="M219.5,195.2v10.4h-2.9v-10.4H219.5 M220.4,194.3h-4.7v12.2h4.7V194.3L220.4,194.3z"/>
		</g>
		<g>
			<path fill="#503F72" d="M212.5,209.5v11h-3.4v-11H212.5 M213.4,208.6h-5.2v12.8h5.2V208.6L213.4,208.6z"/>
		</g>
		<g>
			<path fill="#503F72" d="M219.5,209.5v11h-2.9v-11H219.5 M220.4,208.6h-4.7v12.8h4.7V208.6L220.4,208.6z"/>
		</g>
		<line fill="none" stroke="#503F72" stroke-width="2" stroke-miterlimit="10" x1="200.5" y1="200.4" x2="202.5" y2="200.4"/>
		<line fill="none" stroke="#503F72" stroke-width="2" stroke-miterlimit="10" x1="200.5" y1="205.4" x2="202.5" y2="205.4"/>
		<circle fill="#503F72" cx="65.1" cy="217.9" r="1.8"/>
		<g>
			<path fill="#503F72" d="M230.1,64.1v205.7H54.8V64.1H230.1 M236.3,57.9H48.5v218.3h187.8V57.9L236.3,57.9z"/>
		</g>
	</g>
</g>
</svg>
