<?xml version="1.0" encoding="utf-8"?>
<!-- Generator: Adobe Illustrator 18.0.0, SVG Export Plug-In . SVG Version: 6.00 Build 0)  -->
<!DOCTYPE svg PUBLIC "-//W3C//DTD SVG 1.1//EN" "http://www.w3.org/Graphics/SVG/1.1/DTD/svg11.dtd">
<svg version="1.1" xmlns="http://www.w3.org/2000/svg" xmlns:xlink="http://www.w3.org/1999/xlink" x="0px" y="0px"
	 viewBox="0 0 206.5 206.5" enable-background="new 0 0 206.5 206.5" xml:space="preserve">
<g id="Layer_1">
	<rect x="-862" y="-213" fill="#EDECEC" width="1938" height="566"/>
	<g>
		<g>
			<defs>
				<rect id="SVGID_1_" x="-856" y="-736.5" width="1920" height="539"/>
			</defs>
			<clipPath id="SVGID_2_">
				<use xlink:href="#SVGID_1_"  overflow="visible"/>
			</clipPath>
			<g clip-path="url(#SVGID_2_)">
				
					<image overflow="visible" width="1920" height="1080" xlink:href="work/college/banner.jpg"  transform="matrix(1 0 0 1 -856 -854.9941)">
				</image>
			</g>
		</g>
	</g>
	<circle fill="#DBDBDB" cx="103.6" cy="103.3" r="102.7"/>
	<g>
		<g>
			<path fill="#DBDBDB" d="M87,53.2c1.3,0,2.7,0.5,3.7,1.5l57.3,57.3c1,1,1.6,2.4,1.5,3.8l-0.7,29.9c-0.1,2.8-2.4,5.1-5.2,5.1
				l-30.9,0.2c0,0,0,0,0,0c-1.4,0-2.7-0.5-3.7-1.5c-8.2-7.9-44.9-44.8-56.7-56.7c-2-2.1-2-5.4,0-7.4l30.8-30.8
				C84.3,53.7,85.6,53.2,87,53.2 M87,45.1c-3.6,0-6.9,1.4-9.5,3.9L46.7,79.8c-5.2,5.2-5.2,13.7,0,18.9
				c11.3,11.3,48.6,48.8,56.8,56.8c2.5,2.4,5.8,3.8,9.3,3.8h0l0.1,0l30.8-0.2c7.3-0.1,13.1-5.8,13.3-13.1l0.7-29.9
				c0.1-3.6-1.3-7.2-3.9-9.8L96.4,49C93.9,46.5,90.6,45.1,87,45.1L87,45.1z"/>
		</g>
		<path fill="none" stroke="#503F72" stroke-width="4.1314" stroke-miterlimit="10" d="M112.9,151.2l30.9-0.2c2.8,0,5.2-2.3,5.2-5.1
			l0.7-29.9c0-1.4-0.5-2.8-1.5-3.8L90.7,54.8c-2.1-2.1-5.4-2.1-7.4,0L52.5,85.6c-2,2-2.1,5.4,0,7.4c11.8,11.9,48.6,48.8,56.7,56.7
			C110.2,150.7,111.5,151.2,112.9,151.2z"/>
		<line fill="none" stroke="#503F72" stroke-width="2.7041" stroke-miterlimit="10" x1="97.1" y1="61.6" x2="59.3" y2="99.4"/>
		<line fill="none" stroke="#503F72" stroke-width="1.8027" stroke-miterlimit="10" x1="102.3" y1="66.7" x2="64.4" y2="104.6"/>
		<polyline fill="none" stroke="#503F72" stroke-width="2.7041" stroke-miterlimit="10" points="149.2,113.3 140.3,113.7 
			139.8,123.1 130.7,123.6 130.2,132.5 121.4,133 121,141.8 112,142.2 111.2,151.6 		"/>
		<path fill="#503F72" d="M148.3,141.4c-1.9,1-3.7,2.3-5.3,3.9c-1.5,1.5-2.7,3.1-3.7,4.9l8.8,0L148.3,141.4z"/>
		<line fill="none" stroke="#503F72" stroke-width="1.8027" stroke-miterlimit="10" x1="140.5" y1="119.8" x2="95.3" y2="74.5"/>
		<line fill="none" stroke="#503F72" stroke-width="1.8027" stroke-miterlimit="10" x1="117.3" y1="141.2" x2="73" y2="96.8"/>
		<line fill="none" stroke="#503F72" stroke-width="1.8027" stroke-miterlimit="10" x1="129.8" y1="132" x2="83.8" y2="86"/>
		
			<rect x="53.9" y="79.8" transform="matrix(-0.7071 0.7071 -0.7071 -0.7071 197.3704 84.8117)" fill="#503F72" width="54.3" height="7"/>
	</g>
</g>
<g id="Layer_2">
</g>
</svg>
