<?xml version="1.0" encoding="utf-8"?>
<!-- Generator: Adobe Illustrator 18.0.0, SVG Export Plug-In . SVG Version: 6.00 Build 0)  -->
<!DOCTYPE svg PUBLIC "-//W3C//DTD SVG 1.1//EN" "http://www.w3.org/Graphics/SVG/1.1/DTD/svg11.dtd">
<svg version="1.1" xmlns="http://www.w3.org/2000/svg" xmlns:xlink="http://www.w3.org/1999/xlink" x="0px" y="0px"
	 viewBox="0 0 206.5 206.5" enable-background="new 0 0 206.5 206.5" xml:space="preserve">
<g id="Layer_1">
	<rect x="-1263" y="-213" fill="#EDECEC" width="1938" height="566"/>
	<g>
		<g>
			<defs>
				<rect id="SVGID_1_" x="-1257" y="-736.5" width="1920" height="539"/>
			</defs>
			<clipPath id="SVGID_2_">
				<use xlink:href="#SVGID_1_"  overflow="visible"/>
			</clipPath>
			<g clip-path="url(#SVGID_2_)">
				
					<image overflow="visible" width="1920" height="1080" xlink:href="work/college/banner.jpg"  transform="matrix(1 0 0 1 -1257 -854.9941)">
				</image>
			</g>
		</g>
	</g>
	<circle fill="#DBDBDB" cx="103" cy="103.3" r="102.7"/>
	<g>
		<g>
			<path fill="#C1C1C1" d="M103.6,107.8c-2,0-4-0.5-5.5-1.4L61,79.9l2.1,0.7l37.1,22.2c1.8,1.1,5,1.1,6.8,0l36.3-21.7l2.1-0.7
				l-36.3,26C107.6,107.3,105.6,107.8,103.6,107.8z"/>
		</g>
		<path fill="none" stroke="#503F72" stroke-width="4.1314" stroke-miterlimit="10" d="M142.6,126.9H64.8c-1,0-1.9-0.8-1.9-1.9V79.5
			c0-1,0.8-1.9,1.9-1.9h77.8c1,0,1.9,0.8,1.9,1.9V125C144.5,126,143.6,126.9,142.6,126.9z"/>
		<path fill="none" stroke="#503F72" stroke-width="4.1314" stroke-miterlimit="10" d="M144.4,79l-36.3,21.7c-2.5,1.5-6.5,1.5-8.9,0
			L62.1,78.5"/>
		<line fill="none" stroke="#503F72" stroke-width="4.1314" stroke-miterlimit="10" x1="96.2" y1="98.7" x2="64" y2="125.6"/>
		<line fill="none" stroke="#503F72" stroke-width="4.1314" stroke-miterlimit="10" x1="111.5" y1="98.7" x2="143.7" y2="125.6"/>
	</g>
</g>
<g id="Layer_2">
</g>
</svg>
