<?xml version="1.0" encoding="utf-8"?>
<!-- Generator: Adobe Illustrator 18.0.0, SVG Export Plug-In . SVG Version: 6.00 Build 0)  -->
<!DOCTYPE svg PUBLIC "-//W3C//DTD SVG 1.1//EN" "http://www.w3.org/Graphics/SVG/1.1/DTD/svg11.dtd">
<svg version="1.1" id="Layer_1" xmlns="http://www.w3.org/2000/svg" xmlns:xlink="http://www.w3.org/1999/xlink" x="0px" y="0px"
	 viewBox="0 0 282.1 170.2" enable-background="new 0 0 282.1 170.2" xml:space="preserve">
<g>
	<g>
		<path fill="#866096" d="M252.6,28l-0.4,115.8L30.6,143l0.4-115.8L252.6,28 M270.1,10.6l-17.5-0.1L31.1,9.7L13.6,9.7l-0.1,17.5
			l-0.4,115.8L13,160.4l17.5,0.1l221.5,0.8l17.5,0.1l0.1-17.5L270,28.1L270.1,10.6L270.1,10.6z"/>
		<path fill="#866096" d="M225.4,37.4l-84.4,61.9L57.2,36.8l-16.8-0.1l97.7,72.8c0.9,0.7,1.9,1,3,1c1,0,2.1-0.3,3-1l98.2-72.1
			L225.4,37.4z"/>
		<g>
			<polygon fill="#866096" points="195.7,78.3 187.6,84.3 233.6,133.5 241.2,133.5 241.2,127 			"/>
			<polygon fill="#866096" points="88.3,79.2 40.4,124 40.4,132.8 45.6,132.8 96.4,85.3 			"/>
		</g>
	</g>
</g>
</svg>
