<?xml version="1.0" encoding="utf-8"?>
<!-- Generator: Adobe Illustrator 18.0.0, SVG Export Plug-In . SVG Version: 6.00 Build 0)  -->
<!DOCTYPE svg PUBLIC "-//W3C//DTD SVG 1.1//EN" "http://www.w3.org/Graphics/SVG/1.1/DTD/svg11.dtd">
<svg version="1.1" id="Layer_1" xmlns="http://www.w3.org/2000/svg" xmlns:xlink="http://www.w3.org/1999/xlink" x="0px" y="0px"
	 viewBox="0 0 960 560" enable-background="new 0 0 960 560" xml:space="preserve">
<g>
	<g>
		<path fill="#866096" d="M591.5,222.9l-0.4,115.8l-221.5-0.8l0.4-115.8L591.5,222.9 M609,205.5l-17.5-0.1L370,204.6l-17.5-0.1
			l-0.1,17.5l-0.4,115.8l-0.1,17.5l17.5,0.1l221.5,0.8l17.5,0.1l0.1-17.5l0.4-115.8L609,205.5L609,205.5z"/>
		<path fill="#866096" d="M564.4,232.3L480,294.3l-83.9-62.5l-16.8-0.1l97.7,72.8c0.9,0.7,1.9,1,3,1c1,0,2.1-0.3,3-1l98.2-72.1
			L564.4,232.3z"/>
		<g>
			<polygon fill="#866096" points="534.7,273.2 526.6,279.2 572.5,328.4 580.2,328.4 580.2,321.9 			"/>
			<polygon fill="#866096" points="427.3,274.1 379.3,318.9 379.3,327.7 384.6,327.7 435.4,280.2 			"/>
		</g>
	</g>
</g>
</svg>
