<?xml version="1.0" encoding="utf-8"?>
<!-- Generator: Adobe Illustrator 18.1.1, SVG Export Plug-In . SVG Version: 6.00 Build 0)  -->
<svg version="1.1" id="Layer_1" xmlns="http://www.w3.org/2000/svg" xmlns:xlink="http://www.w3.org/1999/xlink" x="0px" y="0px"
	 viewBox="6 134 276 164" enable-background="new 6 134 276 164" xml:space="preserve">
<g>
	<g>
		<g id="XMLID_1_">
			<g>
				<path fill="#FFFFFF" d="M257.9,157.7l-0.4,118.2l-226.2-0.8l0.4-118.2L257.9,157.7z M147.1,240.9l100.3-73.6h-17.3l-86.2,63.2
					l-85.5-63.8l-17.2-0.1l99.8,74.3c0.9,0.7,1.9,1,3.1,1C145.1,241.9,146.2,241.6,147.1,240.9z M246.2,265.4v-6.6l-46.5-49.7
					l-8.3,6.1l47,50.2H246.2z M46.5,264.7l51.9-48.5l-8.3-6.2l-48.9,45.7v9H46.5z"/>
				<path fill="#866096" d="M275.8,139.9l-0.1,17.9L275.2,276l-0.1,17.9l-17.9-0.1L31.1,293l-17.9-0.1l0.1-17.8l0.4-118.2l0.1-17.9
					h17.9l226.1,0.8L275.8,139.9z M257.5,275.9l0.4-118.2l-226.2-0.8l-0.4,118.2L257.5,275.9z"/>
				<path fill="#866096" d="M247.4,167.3l-100.3,73.6c-0.9,0.7-2,1-3.1,1c-1.1,0-2.1-0.3-3.1-1l-99.8-74.3l17.2,0.1l85.5,63.8
					l86.2-63.2H247.4z"/>
				<polygon fill="#866096" points="246.2,258.8 246.2,265.4 238.5,265.4 191.5,215.2 199.8,209.1 				"/>
				<polygon fill="#866096" points="98.4,216.2 46.5,264.7 41.2,264.7 41.2,255.7 90.2,210 				"/>
			</g>
			<g>
			</g>
		</g>
	</g>
</g>
</svg>
