<?xml version="1.0" encoding="utf-8"?>
<!-- Generator: Adobe Illustrator 18.0.0, SVG Export Plug-In . SVG Version: 6.00 Build 0)  -->
<!DOCTYPE svg PUBLIC "-//W3C//DTD SVG 1.1//EN" "http://www.w3.org/Graphics/SVG/1.1/DTD/svg11.dtd">
<svg version="1.1" id="Layer_1" xmlns="http://www.w3.org/2000/svg" xmlns:xlink="http://www.w3.org/1999/xlink" x="0px" y="0px"
	 viewBox="191.3 268.8 204.9 194.8" enable-background="new 191.3 268.8 204.9 194.8" xml:space="preserve">
<g>
	<path fill="#A50605" d="M259.8,286.8L373,400l8.2,50.7l-58.6-0.3L209.3,337.3L259.8,286.8 M259.8,268.8l-9,9l-50.5,50.5l-9,9l9,9
		l113.2,113.2l3.7,3.7h5.3l58.7,0.3l15,0.1l-2.4-14.8l-8.2-50.7l-0.7-4.1l-2.9-2.9L268.8,277.8L259.8,268.8L259.8,268.8z"/>
</g>
<g>
	<path fill="#A50605" stroke="#000000" stroke-width="10" stroke-miterlimit="10" d="M265.4,304.9"/>
</g>
<g>
	
		<rect x="243.5" y="296.4" transform="matrix(-0.7071 -0.7071 0.7071 -0.7071 191.3128 726.2839)" fill="#A50605" width="5.1" height="54.2"/>
</g>
<g>
	
		<rect x="265.9" y="357.2" transform="matrix(-0.7071 -0.7071 0.7071 -0.7071 258.4071 826.5477)" fill="#A50605" width="69" height="5.1"/>
</g>
<g>
	
		<rect x="247.2" y="375.8" transform="matrix(-0.7071 -0.7071 0.7071 -0.7071 213.4286 845.1082)" fill="#A50605" width="69" height="5.1"/>
</g>
<g>
	<path fill="#A50605" d="M380.5,435.2c0,0-12.9,0.7-15.6,17.9l18.4,1.8L380.5,435.2z"/>
</g>
<g>
	<path fill="#A50605" d="M357.8,396.6c-3.4,0-7.3,0.7-11,2.9c-4.9,3-8.3,8-9.9,14.9c-3.1,0.9-9.7,3.4-14,9.7
		c-2.5,3.7-3.8,8-3.9,12.9l5.5,5.5c-1-6.2-0.2-11.5,2.6-15.5c4.4-6.5,12.3-8,12.4-8l1.7-0.3l0.3-1.7c1.2-6.3,3.8-10.7,7.8-13.1
		c5.2-3.1,11.6-2.1,14.2-1.5L357.8,396.6z"/>
</g>
</svg>
